<svg xmlns="http://www.w3.org/2000/svg" style="width: 100%; height: 100%; transform: translate3d(0px, 0px, 0px); transform-origin: 0px 0px 0px;" viewBox="0 0 1200 200" preserveAspectRatio="xMidYMid meet" width="1200" height="200"><defs><clipPath id="animationMask_YQYi8IqOCZ"><rect x="0" y="0" width="1200" height="200" /></clipPath><clipPath id="cp_twT3PLXl"><path d="M 0 0 L 240 0 L 240 200 L 0 200 Z" /></clipPath><clipPath id="cp_wA2YFKPd"><path d="M 0 0 L 240 0 L 240 200 L 0 200 Z" /></clipPath><clipPath id="cp_ytEhGjs9"><path d="M 0 0 L 1090 0 L 1090 200 L 0 200 Z" /></clipPath><clipPath id="cp_gpMZFlHg"><path d="M 0 0 L 1090 0 L 1090 200 L 0 200 Z" /></clipPath><clipPath id="cp_WBWo3FRo"><path d="M 0 0 L 9 0 L 9 9 L 0 9 Z" /></clipPath><clipPath id="cp_xajnbLtF"><path d="M 0 0 L 9 0 L 9 9 L 0 9 Z" /></clipPath><clipPath id="cp_NhFyXMSR"><path d="M 0 0 L 9 0 L 9 9 L 0 9 Z" /></clipPath><clipPath id="cp_4vXnZSGM"><path d="M 0 0 L 9 0 L 9 9 L 0 9 Z" /></clipPath><clipPath id="cp_9Ow32cQJ"><path d="M 0 0 L 9 0 L 9 9 L 0 9 Z" /></clipPath><clipPath id="cp_2GYJShKr"><path d="M 0 0 L 9 0 L 9 9 L 0 9 Z" /></clipPath><clipPath id="cp_RUbGajKV"><path d="M 0 0 L 9 0 L 9 9 L 0 9 Z" /></clipPath><clipPath id="cp_hf4Z1Ij8"><path d="M 0 0 L 9 0 L 9 9 L 0 9 Z" /></clipPath><clipPath id="cp_82WztDjI"><path d="M 0 0 L 9 0 L 9 9 L 0 9 Z" /></clipPath><clipPath id="cp_uksZzOUl"><path d="M 0 0 L 9 0 L 9 9 L 0 9 Z" /></clipPath><clipPath id="cp_99S17tRj"><path d="M 0 0 L 9 0 L 9 9 L 0 9 Z" /></clipPath><clipPath id="cp_lXEAyHnw"><path d="M 0 0 L 9 0 L 9 9 L 0 9 Z" /></clipPath><clipPath id="cp_7moKHOeS"><path d="M 0 0 L 1090 0 L 1090 200 L 0 200 Z" /></clipPath><clipPath id="cp_Ec3ItiCc"><path d="M 0 0 L 1090 0 L 1090 200 L 0 200 Z" /></clipPath><clipPath id="cp_f8G6h488"><path d="M 0 0 L 1090 0 L 1090 200 L 0 200 Z" /></clipPath><clipPath id="cp_ENGTRSK7"><path d="M 0 0 L 1090 0 L 1090 200 L 0 200 Z" /></clipPath><clipPath id="QAJc42U6J3"><path clip-rule="nonzero" fill="#ffffff" d="M 82.501 -1.414 C 82.501 -1.414 4.39 -1.414 4.39 -1.414 C 4.39 -1.414 4.39 65.176 4.39 65.176 C 4.39 65.176 82.501 65.176 82.501 65.176 C 82.501 65.176 82.501 -1.414 82.501 -1.414" /></clipPath><clipPath id="V4BrnETxDL"><path clip-rule="nonzero" fill="#ffffff" d="M 82.001 -10.192 C 82.001 -10.192 3.223 -10.192 3.223 -10.192 C 3.223 -10.192 3.223 56.398 3.223 56.398 C 3.223 56.398 82.001 56.398 82.001 56.398 C 82.001 56.398 82.001 -10.192 82.001 -10.192" /></clipPath><clipPath id="RINnNrpuiB"><path clip-rule="nonzero" fill="#ffffff" d="M 82.156 -1.414 C 82.156 -1.414 3.712 -1.414 3.712 -1.414 C 3.712 -1.414 3.712 65.176 3.712 65.176 C 3.712 65.176 82.156 65.176 82.156 65.176 C 82.156 65.176 82.156 -1.414 82.156 -1.414" /></clipPath><clipPath id="VFKCn1cywP"><path clip-rule="nonzero" fill="#ffffff" d="M 81.99 -19.17 C 81.99 -19.17 4.101 -19.17 4.101 -19.17 C 4.101 -19.17 4.101 47.42 4.101 47.42 C 4.101 47.42 81.99 47.42 81.99 47.42 C 81.99 47.42 81.99 -19.17 81.99 -19.17" /></clipPath></defs><g clip-path="url(&quot;#animationMask_YQYi8IqOCZ&quot;)"><g opacity="1" clip-path="url(&quot;#cp_ENGTRSK7&quot;)" transform="matrix(1, 0, 0, 1, 25.5, 0)"><g style="-ms-user-select: none;" opacity="1" transform="matrix(1, 0, 0, 1, 656.076, 75.998)"><g opacity="1" transform="matrix(1, 0, 0, 1, 45.424, 38.174)"><path fill-opacity="0" stroke="rgb(214, 219, 221)" stroke-linecap="butt" stroke-linejoin="miter" stroke-miterlimit="4" stroke-opacity="1" stroke-width="2" d="M -43.424 36.174 C -43.424 36.174 43.424 36.174 43.424 36.174 C 43.424 36.174 43.424 -36.174 43.424 -36.174 C 43.424 -36.174 -43.424 -36.174 -43.424 -36.174 C -43.424 -36.174 -43.424 36.174 -43.424 36.174 Z M -31.757 60.618 C -31.757 60.618 -31.757 36.327 -31.757 36.327 C -31.757 36.327 -31.757 60.618 -31.757 60.618 Z M 31.757 60.733 C 31.757 60.733 31.757 36.174 31.757 36.174 C 31.757 36.174 31.757 60.733 31.757 60.733 Z M -31.757 47.156 C -31.757 47.156 31.757 47.156 31.757 47.156 C 31.757 47.156 -31.757 47.156 -31.757 47.156 Z" /></g><g opacity="1" transform="matrix(1, 0, 0, 1, 13.668, 100.124)"><path fill="rgb(255, 255, 255)" fill-opacity="1" d="M -5.99 1.331 C -5.99 1.331 5.99 1.331 5.99 1.331 C 5.99 1.331 5.99 -1.331 5.99 -1.331 C 5.99 -1.331 -5.99 -1.331 -5.99 -1.331 C -5.99 -1.331 -5.99 1.331 -5.99 1.331 Z" /><path fill-opacity="0" stroke="rgb(214, 219, 221)" stroke-linecap="butt" stroke-linejoin="miter" stroke-miterlimit="4" stroke-opacity="1" stroke-width="2" d="M -5.99 1.331 C -5.99 1.331 5.99 1.331 5.99 1.331 C 5.99 1.331 5.99 -1.331 5.99 -1.331 C 5.99 -1.331 -5.99 -1.331 -5.99 -1.331 C -5.99 -1.331 -5.99 1.331 -5.99 1.331 Z" /></g><g opacity="1" transform="matrix(1, 0, 0, 1, 77.181, 100.124)"><path fill="rgb(255, 255, 255)" fill-opacity="1" d="M -5.99 1.331 C -5.99 1.331 5.99 1.331 5.99 1.331 C 5.99 1.331 5.99 -1.331 5.99 -1.331 C 5.99 -1.331 -5.99 -1.331 -5.99 -1.331 C -5.99 -1.331 -5.99 1.331 -5.99 1.331 Z" /><path fill-opacity="0" stroke="rgb(214, 219, 221)" stroke-linecap="butt" stroke-linejoin="miter" stroke-miterlimit="4" stroke-opacity="1" stroke-width="2" d="M -5.99 1.331 C -5.99 1.331 5.99 1.331 5.99 1.331 C 5.99 1.331 5.99 -1.331 5.99 -1.331 C 5.99 -1.331 -5.99 -1.331 -5.99 -1.331 C -5.99 -1.331 -5.99 1.331 -5.99 1.331 Z" /></g><g opacity="1" transform="matrix(1, 0, 0, 1, 0, 0)"><path fill-opacity="0" stroke="rgb(214, 219, 221)" stroke-linecap="butt" stroke-linejoin="miter" stroke-miterlimit="4" stroke-opacity="1" stroke-width="2" d="M 5.924 60.301 C 5.924 60.301 84.038 60.301 84.038 60.301 M 5.924 46.035 C 5.924 46.035 84.038 46.035 84.038 46.035 M 5.924 31.769 C 5.924 31.769 84.038 31.769 84.038 31.769 M 5.924 17.501 C 5.924 17.501 84.038 17.501 84.038 17.501" /></g><g opacity="1" transform="matrix(1, 0, 0, 1, 9.901, 85.984)"><path fill-opacity="0" stroke="rgb(214, 219, 221)" stroke-linecap="butt" stroke-linejoin="miter" stroke-miterlimit="4" stroke-opacity="1" stroke-width="2" d="M 3.789 5.577 C 1.813 5.577 -3.789 4.799 -3.789 0 C -3.789 -4.799 1.813 -5.577 3.789 -5.577 C 3.789 -5.577 3.789 3.577 3.789 3.577 C 3.789 3.577 3.789 5.577 3.789 5.577 Z" /></g><g opacity="1" transform="matrix(1, 0, 0, 1, 80.969, 86.086)"><path fill-opacity="0" stroke="rgb(214, 219, 221)" stroke-linecap="butt" stroke-linejoin="miter" stroke-miterlimit="4" stroke-opacity="1" stroke-width="2" d="M -3.788 5.577 C -1.812 5.577 3.788 4.799 3.788 0 C 3.788 -4.799 -1.812 -5.577 -3.788 -5.577 C -3.788 -5.577 -3.788 3.577 -3.788 3.577 C -3.788 3.577 -3.788 5.577 -3.788 5.577 Z" /></g></g><g style="-ms-user-select: none;" opacity="1" clip-path="url(&quot;#VFKCn1cywP&quot;)" transform="matrix(1, 0, 0, 1, 657.789, 111.578)"><g opacity="1" transform="matrix(0.99938, 0, 0, 0.99464, 44.671, 16.046)"><path fill-opacity="0" stroke="rgb(198, 79, 150)" stroke-linecap="butt" stroke-linejoin="miter" stroke-miterlimit="4" stroke-opacity="1" stroke-width="2" d="M -44.3029 -11.5132 C -44.3029 -11.5132 -21.5331 4.44582 -21.5331 4.44582 C -21.5331 4.44582 10.806 -9.96163 10.806 -9.96163 C 10.806 -9.96163 44.2641 -24.0696 44.2641 -24.0696" /></g></g><g style="-ms-user-select: none;" opacity="1" clip-path="url(&quot;#RINnNrpuiB&quot;)" transform="matrix(1, 0, 0, 1, 658.066, 114.666)"><g opacity="1" transform="matrix(1.00643, 0, 0, 1.02737, 43.012, 8.504)"><path fill-opacity="0" stroke="rgb(12, 158, 216)" stroke-linecap="butt" stroke-linejoin="miter" stroke-miterlimit="4" stroke-opacity="1" stroke-width="2" d="M -42.932 5.591 C -42.932 5.591 -20.233 7.402 -20.233 7.402 C -20.233 7.402 22.174 -7.402 22.174 -7.402 C 22.174 -7.402 42.453 4.451 42.453 4.451" /></g></g><g style="-ms-user-select: none;" opacity="1" clip-path="url(&quot;#V4BrnETxDL&quot;)" transform="matrix(1, 0, 0, 1, 658.666, 101.077)"><g opacity="1" transform="matrix(0.99916, 0, 0, 1.00408, 43.201, 12.486)"><path fill-opacity="0" stroke="rgb(40, 56, 135)" stroke-linecap="butt" stroke-linejoin="miter" stroke-miterlimit="4" stroke-opacity="1" stroke-width="2" d="M -42.6942 -4.8781 C -42.6942 -4.8781 -20.7968 -6.89504 -20.7968 -6.89504 C -20.7968 -6.89504 13.2683 0.725822 13.2683 0.725822 C 13.2683 0.725822 42.7166 -2.74024 42.7166 -2.74024" /></g></g><g style="-ms-user-select: none;" opacity="1" clip-path="url(&quot;#QAJc42U6J3&quot;)" transform="matrix(1, 0, 0, 1, 657.388, 89.824)"><g opacity="1" transform="matrix(1, 0, 0, 1, 46.315, 13.668)"><path fill-opacity="0" stroke="rgb(63, 175, 173)" stroke-linecap="butt" stroke-linejoin="miter" stroke-miterlimit="4" stroke-opacity="1" stroke-width="2" d="M -45.5096 -5.5129 C -45.5096 -5.5129 -23.0879 3.35937 -23.0879 3.35937 C -23.0879 3.35937 8.62016 2.63796 8.62016 2.63796 C 8.62016 2.63796 43.6788 4.26175 43.6788 4.26175" /></g></g></g><g opacity="1" clip-path="url(&quot;#cp_f8G6h488&quot;)" transform="matrix(1, 0, 0, 1, 25.5, 0)"><g style="-ms-user-select: none;" opacity="1" transform="matrix(1, 0, 0, 1, 738.833, 160.077)"><g opacity="1" transform="matrix(1, 0, 0, 1, 123.794, 10.028)"><path fill-opacity="0" stroke="rgb(214, 219, 221)" stroke-dasharray="3px, 2px" stroke-dashoffset="0" stroke-linecap="butt" stroke-linejoin="miter" stroke-miterlimit="4" stroke-opacity="1" stroke-width="2" d="M -121.794 -8.021 C -121.794 -8.021 -113.812 8.028 -113.812 8.028 C -113.812 8.028 78.216 8.077 78.216 8.077 C 78.216 8.077 88.706 -7.979 88.706 -7.979" /></g></g><g style="-ms-user-select: none;" opacity="1" transform="matrix(1, 0, 0, 1, 986.039, 81.641)"><g opacity="1" transform="matrix(1, 0, 0, 1, 24.5, 20.708)"><path style="display: none;" fill="rgb(255, 255, 255)" fill-opacity="1" d="M -22.5 -18.708 C -22.5 -18.708 22.5 -18.708 22.5 -18.708 C 22.5 -18.708 22.5 18.708 22.5 18.708 C 22.5 18.708 -22.5 18.708 -22.5 18.708 C -22.5 18.708 -22.5 -18.708 -22.5 -18.708 Z" /><path style="display: none;" fill-opacity="0" stroke="rgb(214, 219, 221)" stroke-linecap="butt" stroke-linejoin="miter" stroke-miterlimit="4" stroke-opacity="1" stroke-width="2" d="M -22.5 -18.708 C -22.5 -18.708 22.5 -18.708 22.5 -18.708 C 22.5 -18.708 22.5 18.708 22.5 18.708 C 22.5 18.708 -22.5 18.708 -22.5 18.708 C -22.5 18.708 -22.5 -18.708 -22.5 -18.708 Z" /></g><g opacity="1" transform="matrix(1, 0, 0, 1, 13.709, 15.478)"><path style="display: none;" fill-opacity="0" stroke="rgb(214, 219, 221)" stroke-linecap="round" stroke-linejoin="round" stroke-opacity="1" stroke-width="2" d="M -10.538 -12.309 C -10.538 -12.309 10.538 12.309 10.538 12.309" /></g><g opacity="1" transform="matrix(1, 0, 0, 1, 34.623, 15.394)"><path style="display: none;" fill-opacity="0" stroke="rgb(214, 219, 221)" stroke-linecap="round" stroke-linejoin="round" stroke-opacity="1" stroke-width="2" d="M 10.377 -12.393 C 10.377 -12.393 -10.377 12.393 -10.377 12.393" /></g><g opacity="1" transform="matrix(1, 0, 0, 1, 38.673, 27.527)"><path style="display: none;" fill-opacity="0" stroke="rgb(214, 219, 221)" stroke-linecap="round" stroke-linejoin="round" stroke-opacity="1" stroke-width="2" d="M -8.326 -7.107 C -3.072 -2.219 3.072 2.219 8.326 7.107" /></g><g opacity="1" transform="matrix(1, 0, 0, 1, 9.968, 27.527)"><path style="display: none;" fill-opacity="0" stroke="rgb(214, 219, 221)" stroke-linecap="round" stroke-linejoin="round" stroke-opacity="1" stroke-width="2" d="M 7.855 -7.107 C 2.709 -2.32 -2.71 2.32 -7.855 7.107 C -7.855 7.107 7.855 -7.107 7.855 -7.107 Z" /></g><g opacity="1" transform="matrix(1, 0, 0, 1, 26.308, 10.012)"><path style="display: none;" fill="rgb(214, 219, 221)" fill-opacity="1" d="M 0.07 -0.437 C 0.201 0.06 -0.153 -0.095 -0.659 0.033 C -0.82 0.073 -0.647 0.733 -0.797 0.695 C -0.586 0.858 -0.308 0.934 -0.025 0.878 C 0.487 0.776 0.82 0.286 0.716 -0.217 C 0.642 -0.578 0.364 -0.848 0.023 -0.934 C 0.181 -0.813 -0.08 -0.771 -0.025 -0.566" /></g><g opacity="1" transform="matrix(1, 0, 0, 1, 23.982, 13.462)"><path style="display: none;" fill="rgb(214, 219, 221)" fill-opacity="1" d="M -3.001 -1.146 C -3.056 -1.186 -3.124 -1.208 -3.194 -1.206 C -3.152 -1.252 -3.095 -1.287 -3.027 -1.3 C -2.86 -1.333 -2.696 -1.227 -2.663 -1.063 C -2.629 -0.899 -2.738 -0.739 -2.905 -0.706 C -2.922 -0.702 -2.938 -0.702 -2.954 -0.701 C -2.888 -0.774 -2.859 -0.877 -2.886 -0.979 C -2.904 -1.049 -2.946 -1.107 -3.001 -1.146 C -2.946 -1.107 -2.904 -1.049 -2.886 -0.979 C -2.859 -0.877 -2.888 -0.774 -2.954 -0.701 C -3.103 -0.696 -3.238 -0.796 -3.269 -0.943 C -3.289 -1.041 -3.258 -1.137 -3.194 -1.206 C -3.124 -1.208 -3.056 -1.186 -3.001 -1.146 Z M -2.394 -2.159 C -2.453 -2.209 -2.526 -2.241 -2.605 -2.25 C -2.562 -2.28 -2.512 -2.301 -2.457 -2.312 C -2.243 -2.355 -2.034 -2.218 -1.991 -2.008 C -1.948 -1.797 -2.087 -1.592 -2.301 -1.549 C -2.344 -1.541 -2.385 -1.54 -2.426 -1.545 C -2.294 -1.635 -2.224 -1.799 -2.267 -1.961 C -2.288 -2.041 -2.334 -2.109 -2.394 -2.159 C -2.334 -2.109 -2.288 -2.041 -2.267 -1.961 C -2.224 -1.799 -2.294 -1.635 -2.426 -1.545 C -2.592 -1.564 -2.733 -1.685 -2.767 -1.854 C -2.799 -2.011 -2.731 -2.164 -2.605 -2.25 C -2.526 -2.241 -2.453 -2.209 -2.394 -2.159 Z M -0.173 -2.819 C -0.173 -2.819 -0.173 -2.819 -0.173 -2.819 C -0.055 -2.757 0.083 -2.733 0.223 -2.761 C 0.543 -2.825 0.751 -3.131 0.686 -3.445 C 0.625 -3.743 0.342 -3.941 0.04 -3.908 C 0.111 -3.871 0.174 -3.82 0.225 -3.758 C 0.174 -3.82 0.111 -3.871 0.04 -3.908 C 0.023 -3.906 0.007 -3.903 -0.009 -3.9 C -0.33 -3.837 -0.539 -3.53 -0.474 -3.216 C -0.438 -3.039 -0.322 -2.898 -0.173 -2.819 Z M -1.258 -2.961 C -1.195 -2.721 -1.326 -2.477 -1.556 -2.389 C -1.482 -2.368 -1.404 -2.363 -1.323 -2.38 C -1.056 -2.432 -0.882 -2.688 -0.936 -2.951 C -0.99 -3.213 -1.249 -3.384 -1.517 -3.331 C -1.546 -3.325 -1.573 -3.317 -1.6 -3.307 C -1.437 -3.261 -1.303 -3.134 -1.258 -2.961 Z M 1.924 1.276 C 3.074 0.574 3.289 -0.922 2.108 -1.89 C 1.579 -2.324 0.582 -2.569 -0.319 -2.146 C 0.24 -2.227 0.786 -2.107 1.158 -1.886 C 2.474 -1.103 2.491 0.407 1.462 1.271 C -0.722 3.105 1.694 4.394 1.694 4.394 C 1.694 4.394 -0.515 2.766 1.924 1.276 Z M 1.996 -4.365 C 1.484 -4.265 1.152 -3.775 1.254 -3.271 C 1.301 -3.045 1.427 -2.856 1.598 -2.724 C 1.747 -2.687 1.909 -2.684 2.069 -2.725 C 2.576 -2.852 2.88 -3.359 2.75 -3.857 C 2.695 -4.062 2.575 -4.232 2.418 -4.354 C 2.284 -4.387 2.141 -4.394 1.996 -4.365 Z M -1.905 -2.759 C -1.867 -2.575 -1.728 -2.437 -1.556 -2.389 C -1.326 -2.477 -1.195 -2.721 -1.258 -2.961 C -1.303 -3.134 -1.437 -3.261 -1.6 -3.307 C -1.819 -3.223 -1.954 -2.994 -1.905 -2.759 Z M 1.462 1.271 C 2.491 0.407 2.474 -1.103 1.158 -1.886 C 0.786 -2.107 0.24 -2.227 -0.319 -2.146 C -0.581 -2.023 -0.835 -1.844 -1.068 -1.596 C -1.841 -0.77 -1.723 0.874 -0.954 2.182 C -0.234 3.41 1.694 4.394 1.694 4.394 C 1.694 4.394 -0.722 3.105 1.462 1.271 Z" /></g></g><g style="-ms-user-select: none;" opacity="1" transform="matrix(1, 0, 0, 1, 986.039, 81.641)"><g opacity="1" transform="matrix(1, 0, 0, 1, 24.5, 20.708)"><path style="display: none;" fill="rgb(255, 255, 255)" fill-opacity="1" d="M -22.5 -18.708 C -22.5 -18.708 22.5 -18.708 22.5 -18.708 C 22.5 -18.708 22.5 18.708 22.5 18.708 C 22.5 18.708 -22.5 18.708 -22.5 18.708 C -22.5 18.708 -22.5 -18.708 -22.5 -18.708 Z" /><path style="display: none;" fill-opacity="0" stroke="rgb(214, 219, 221)" stroke-linecap="butt" stroke-linejoin="miter" stroke-miterlimit="4" stroke-opacity="1" stroke-width="2" d="M -22.5 -18.708 C -22.5 -18.708 22.5 -18.708 22.5 -18.708 C 22.5 -18.708 22.5 18.708 22.5 18.708 C 22.5 18.708 -22.5 18.708 -22.5 18.708 C -22.5 18.708 -22.5 -18.708 -22.5 -18.708 Z" /></g><g opacity="1" transform="matrix(1, 0, 0, 1, 13.709, 15.478)"><path style="display: none;" fill-opacity="0" stroke="rgb(214, 219, 221)" stroke-linecap="round" stroke-linejoin="round" stroke-opacity="1" stroke-width="2" d="M -10.538 -12.309 C -10.538 -12.309 10.538 12.309 10.538 12.309" /></g><g opacity="1" transform="matrix(1, 0, 0, 1, 34.623, 15.394)"><path style="display: none;" fill-opacity="0" stroke="rgb(214, 219, 221)" stroke-linecap="round" stroke-linejoin="round" stroke-opacity="1" stroke-width="2" d="M 10.377 -12.393 C 10.377 -12.393 -10.377 12.393 -10.377 12.393" /></g><g opacity="1" transform="matrix(1, 0, 0, 1, 38.673, 27.527)"><path style="display: none;" fill-opacity="0" stroke="rgb(214, 219, 221)" stroke-linecap="round" stroke-linejoin="round" stroke-opacity="1" stroke-width="2" d="M -8.326 -7.107 C -3.072 -2.219 3.072 2.219 8.326 7.107" /></g><g opacity="1" transform="matrix(1, 0, 0, 1, 9.968, 27.527)"><path style="display: none;" fill-opacity="0" stroke="rgb(214, 219, 221)" stroke-linecap="round" stroke-linejoin="round" stroke-opacity="1" stroke-width="2" d="M 7.855 -7.107 C 2.709 -2.32 -2.71 2.32 -7.855 7.107 C -7.855 7.107 7.855 -7.107 7.855 -7.107 Z" /></g><g opacity="1" transform="matrix(1, 0, 0, 1, 26.308, 10.012)"><path style="display: none;" fill="rgb(214, 219, 221)" fill-opacity="1" d="M 0.07 -0.437 C 0.201 0.06 -0.153 -0.095 -0.659 0.033 C -0.82 0.073 -0.647 0.733 -0.797 0.695 C -0.586 0.858 -0.308 0.934 -0.025 0.878 C 0.487 0.776 0.82 0.286 0.716 -0.217 C 0.642 -0.578 0.364 -0.848 0.023 -0.934 C 0.181 -0.813 -0.08 -0.771 -0.025 -0.566" /></g><g opacity="1" transform="matrix(1, 0, 0, 1, 23.982, 13.462)"><path style="display: none;" fill="rgb(214, 219, 221)" fill-opacity="1" d="M -3.001 -1.146 C -3.056 -1.186 -3.124 -1.208 -3.194 -1.206 C -3.152 -1.252 -3.095 -1.287 -3.027 -1.3 C -2.86 -1.333 -2.696 -1.227 -2.663 -1.063 C -2.629 -0.899 -2.738 -0.739 -2.905 -0.706 C -2.922 -0.702 -2.938 -0.702 -2.954 -0.701 C -2.888 -0.774 -2.859 -0.877 -2.886 -0.979 C -2.904 -1.049 -2.946 -1.107 -3.001 -1.146 C -2.946 -1.107 -2.904 -1.049 -2.886 -0.979 C -2.859 -0.877 -2.888 -0.774 -2.954 -0.701 C -3.103 -0.696 -3.238 -0.796 -3.269 -0.943 C -3.289 -1.041 -3.258 -1.137 -3.194 -1.206 C -3.124 -1.208 -3.056 -1.186 -3.001 -1.146 Z M -2.394 -2.159 C -2.453 -2.209 -2.526 -2.241 -2.605 -2.25 C -2.562 -2.28 -2.512 -2.301 -2.457 -2.312 C -2.243 -2.355 -2.034 -2.218 -1.991 -2.008 C -1.948 -1.797 -2.087 -1.592 -2.301 -1.549 C -2.344 -1.541 -2.385 -1.54 -2.426 -1.545 C -2.294 -1.635 -2.224 -1.799 -2.267 -1.961 C -2.288 -2.041 -2.334 -2.109 -2.394 -2.159 C -2.334 -2.109 -2.288 -2.041 -2.267 -1.961 C -2.224 -1.799 -2.294 -1.635 -2.426 -1.545 C -2.592 -1.564 -2.733 -1.685 -2.767 -1.854 C -2.799 -2.011 -2.731 -2.164 -2.605 -2.25 C -2.526 -2.241 -2.453 -2.209 -2.394 -2.159 Z M -0.173 -2.819 C -0.173 -2.819 -0.173 -2.819 -0.173 -2.819 C -0.055 -2.757 0.083 -2.733 0.223 -2.761 C 0.543 -2.825 0.751 -3.131 0.686 -3.445 C 0.625 -3.743 0.342 -3.941 0.04 -3.908 C 0.111 -3.871 0.174 -3.82 0.225 -3.758 C 0.174 -3.82 0.111 -3.871 0.04 -3.908 C 0.023 -3.906 0.007 -3.903 -0.009 -3.9 C -0.33 -3.837 -0.539 -3.53 -0.474 -3.216 C -0.438 -3.039 -0.322 -2.898 -0.173 -2.819 Z M -1.258 -2.961 C -1.195 -2.721 -1.326 -2.477 -1.556 -2.389 C -1.482 -2.368 -1.404 -2.363 -1.323 -2.38 C -1.056 -2.432 -0.882 -2.688 -0.936 -2.951 C -0.99 -3.213 -1.249 -3.384 -1.517 -3.331 C -1.546 -3.325 -1.573 -3.317 -1.6 -3.307 C -1.437 -3.261 -1.303 -3.134 -1.258 -2.961 Z M 1.924 1.276 C 3.074 0.574 3.289 -0.922 2.108 -1.89 C 1.579 -2.324 0.582 -2.569 -0.319 -2.146 C 0.24 -2.227 0.786 -2.107 1.158 -1.886 C 2.474 -1.103 2.491 0.407 1.462 1.271 C -0.722 3.105 1.694 4.394 1.694 4.394 C 1.694 4.394 -0.515 2.766 1.924 1.276 Z M 1.996 -4.365 C 1.484 -4.265 1.152 -3.775 1.254 -3.271 C 1.301 -3.045 1.427 -2.856 1.598 -2.724 C 1.747 -2.687 1.909 -2.684 2.069 -2.725 C 2.576 -2.852 2.88 -3.359 2.75 -3.857 C 2.695 -4.062 2.575 -4.232 2.418 -4.354 C 2.284 -4.387 2.141 -4.394 1.996 -4.365 Z M -1.905 -2.759 C -1.867 -2.575 -1.728 -2.437 -1.556 -2.389 C -1.326 -2.477 -1.195 -2.721 -1.258 -2.961 C -1.303 -3.134 -1.437 -3.261 -1.6 -3.307 C -1.819 -3.223 -1.954 -2.994 -1.905 -2.759 Z M 1.462 1.271 C 2.491 0.407 2.474 -1.103 1.158 -1.886 C 0.786 -2.107 0.24 -2.227 -0.319 -2.146 C -0.581 -2.023 -0.835 -1.844 -1.068 -1.596 C -1.841 -0.77 -1.723 0.874 -0.954 2.182 C -0.234 3.41 1.694 4.394 1.694 4.394 C 1.694 4.394 -0.722 3.105 1.462 1.271 Z" /></g></g></g><g opacity="1" clip-path="url(&quot;#cp_Ec3ItiCc&quot;)" transform="matrix(1, 0, 0, 1, -7.5, 0)"><g style="-ms-user-select: none;" opacity="1" transform="matrix(1, 0, 0, 1, 981.712, 71.375)"><g opacity="1" transform="matrix(1, 0, 0, 1, 48.077, 57.25)"><path fill="rgb(255, 255, 255)" fill-opacity="1" d="M -38.5 50 C -38.5 50 38.5 50 38.5 50 C 38.5 50 38.5 -50 38.5 -50 C 38.5 -50 -38.5 -50 -38.5 -50 C -38.5 -50 -38.5 50 -38.5 50 Z" /><path fill-opacity="0" stroke="rgb(214, 219, 221)" stroke-linecap="butt" stroke-linejoin="miter" stroke-miterlimit="4" stroke-opacity="1" stroke-width="2" d="M -38.5 50 C -38.5 50 38.5 50 38.5 50 C 38.5 50 38.5 -50 38.5 -50 C 38.5 -50 -38.5 -50 -38.5 -50 C -38.5 -50 -38.5 50 -38.5 50 Z" /></g><g opacity="1" transform="matrix(1, 0, 0, 1, 48.077, 97.75)"><path fill-opacity="0" stroke="rgb(214, 219, 221)" stroke-linecap="butt" stroke-linejoin="miter" stroke-miterlimit="4" stroke-opacity="1" stroke-width="2" d="M -9.872 -9.5 C -9.872 -9.5 9.872 -9.5 9.872 -9.5 C 9.872 -9.5 9.872 9.5 9.872 9.5 C 9.872 9.5 -9.872 9.5 -9.872 9.5 C -9.872 9.5 -9.872 -9.5 -9.872 -9.5 Z" /></g><g opacity="1" transform="matrix(1, 0, 0, 1, 48.077, 97.891)"><path fill="rgb(214, 219, 221)" fill-opacity="1" d="M -0.987 -9.084 C -0.987 -9.084 0.987 -9.084 0.987 -9.084 C 0.987 -9.084 0.987 9.083 0.987 9.083 C 0.987 9.083 -0.987 9.083 -0.987 9.083 C -0.987 9.083 -0.987 -9.084 -0.987 -9.084 Z" /></g><g opacity="1" transform="matrix(1, 0, 0, 1, 5.788, 90.827)"><path fill-opacity="0" stroke="rgb(214, 219, 221)" stroke-linecap="butt" stroke-linejoin="miter" stroke-miterlimit="4" stroke-opacity="1" stroke-width="2" d="M 3.789 5.577 C 1.813 5.577 -3.789 4.799 -3.789 0 C -3.789 -4.799 1.813 -5.577 3.789 -5.577 C 3.789 -5.577 3.789 3.577 3.789 3.577 C 3.789 3.577 3.789 5.577 3.789 5.577 Z" /></g><g opacity="1" transform="matrix(1, 0, 0, 1, 48.077, 94.25)"><path fill="rgb(214, 219, 221)" fill-opacity="1" d="M -9 -1 C -9 -1 9 -1 9 -1 C 9 -1 9 1 9 1 C 9 1 -9 1 -9 1 C -9 1 -9 -1 -9 -1 Z" /></g><g opacity="1" transform="matrix(1, 0, 0, 1, 48.077, 60.75)"><path fill="rgb(255, 255, 255)" fill-opacity="1" d="M -29.5 -3.5 C -29.5 -3.5 29.5 -3.5 29.5 -3.5 C 29.5 -3.5 29.5 3.5 29.5 3.5 C 29.5 3.5 -29.5 3.5 -29.5 3.5 C -29.5 3.5 -29.5 -3.5 -29.5 -3.5 Z" /></g><g opacity="1" transform="matrix(1, 0, 0, 1, 48.077, 60.75)"><path fill="rgb(214, 219, 221)" fill-opacity="1" d="M 28.5 2.5 C 28.5 2.5 -28.5 2.5 -28.5 2.5 C -28.5 2.5 -28.5 -2.5 -28.5 -2.5 C -28.5 -2.5 28.5 -2.5 28.5 -2.5 C 28.5 -2.5 28.5 2.5 28.5 2.5 Z M 30.5 -4.5 C 30.5 -4.5 -30.5 -4.5 -30.5 -4.5 C -30.5 -4.5 -30.5 4.5 -30.5 4.5 C -30.5 4.5 30.5 4.5 30.5 4.5 C 30.5 4.5 30.5 -4.5 30.5 -4.5 Z" /></g><g opacity="1" transform="matrix(1, 0, 0, 1, 48.077, 73.75)"><path fill="rgb(255, 255, 255)" fill-opacity="1" d="M -29.5 -3.5 C -29.5 -3.5 29.5 -3.5 29.5 -3.5 C 29.5 -3.5 29.5 3.5 29.5 3.5 C 29.5 3.5 -29.5 3.5 -29.5 3.5 C -29.5 3.5 -29.5 -3.5 -29.5 -3.5 Z" /></g><g opacity="1" transform="matrix(1, 0, 0, 1, 48.077, 73.75)"><path fill="rgb(214, 219, 221)" fill-opacity="1" d="M 28.5 2.5 C 28.5 2.5 -28.5 2.5 -28.5 2.5 C -28.5 2.5 -28.5 -2.5 -28.5 -2.5 C -28.5 -2.5 28.5 -2.5 28.5 -2.5 C 28.5 -2.5 28.5 2.5 28.5 2.5 Z M 30.5 -4.5 C 30.5 -4.5 -30.5 -4.5 -30.5 -4.5 C -30.5 -4.5 -30.5 4.5 -30.5 4.5 C -30.5 4.5 30.5 4.5 30.5 4.5 C 30.5 4.5 30.5 -4.5 30.5 -4.5 Z" /></g><g opacity="1" transform="matrix(1, 0, 0, 1, 48.077, 47.75)"><path fill="rgb(255, 255, 255)" fill-opacity="1" d="M -29.5 -3.5 C -29.5 -3.5 29.5 -3.5 29.5 -3.5 C 29.5 -3.5 29.5 3.5 29.5 3.5 C 29.5 3.5 -29.5 3.5 -29.5 3.5 C -29.5 3.5 -29.5 -3.5 -29.5 -3.5 Z" /></g><g opacity="1" transform="matrix(1, 0, 0, 1, 48.077, 47.75)"><path fill="rgb(214, 219, 221)" fill-opacity="1" d="M 28.5 2.5 C 28.5 2.5 -28.5 2.5 -28.5 2.5 C -28.5 2.5 -28.5 -2.5 -28.5 -2.5 C -28.5 -2.5 28.5 -2.5 28.5 -2.5 C 28.5 -2.5 28.5 2.5 28.5 2.5 Z M 30.5 -4.5 C 30.5 -4.5 -30.5 -4.5 -30.5 -4.5 C -30.5 -4.5 -30.5 4.5 -30.5 4.5 C -30.5 4.5 30.5 4.5 30.5 4.5 C 30.5 4.5 30.5 -4.5 30.5 -4.5 Z" /></g><g opacity="1" transform="matrix(1, 0, 0, 1, 48.077, 21.75)"><path fill="rgb(255, 255, 255)" fill-opacity="1" d="M -29.5 -3.5 C -29.5 -3.5 29.5 -3.5 29.5 -3.5 C 29.5 -3.5 29.5 3.5 29.5 3.5 C 29.5 3.5 -29.5 3.5 -29.5 3.5 C -29.5 3.5 -29.5 -3.5 -29.5 -3.5 Z" /></g><g opacity="1" transform="matrix(1, 0, 0, 1, 48.077, 21.75)"><path fill="rgb(214, 219, 221)" fill-opacity="1" d="M 28.5 2.5 C 28.5 2.5 -28.5 2.5 -28.5 2.5 C -28.5 2.5 -28.5 -2.5 -28.5 -2.5 C -28.5 -2.5 28.5 -2.5 28.5 -2.5 C 28.5 -2.5 28.5 2.5 28.5 2.5 Z M 30.5 -4.5 C 30.5 -4.5 -30.5 -4.5 -30.5 -4.5 C -30.5 -4.5 -30.5 4.5 -30.5 4.5 C -30.5 4.5 30.5 4.5 30.5 4.5 C 30.5 4.5 30.5 -4.5 30.5 -4.5 Z" /></g><g opacity="1" transform="matrix(1, 0, 0, 1, 48.077, 34.75)"><path fill="rgb(255, 255, 255)" fill-opacity="1" d="M -29.5 -3.5 C -29.5 -3.5 29.5 -3.5 29.5 -3.5 C 29.5 -3.5 29.5 3.5 29.5 3.5 C 29.5 3.5 -29.5 3.5 -29.5 3.5 C -29.5 3.5 -29.5 -3.5 -29.5 -3.5 Z" /></g><g opacity="1" transform="matrix(1, 0, 0, 1, 48.077, 34.75)"><path fill="rgb(214, 219, 221)" fill-opacity="1" d="M 28.5 2.5 C 28.5 2.5 -28.5 2.5 -28.5 2.5 C -28.5 2.5 -28.5 -2.5 -28.5 -2.5 C -28.5 -2.5 28.5 -2.5 28.5 -2.5 C 28.5 -2.5 28.5 2.5 28.5 2.5 Z M 30.5 -4.5 C 30.5 -4.5 -30.5 -4.5 -30.5 -4.5 C -30.5 -4.5 -30.5 4.5 -30.5 4.5 C -30.5 4.5 30.5 4.5 30.5 4.5 C 30.5 4.5 30.5 -4.5 30.5 -4.5 Z" /></g><g opacity="1" transform="matrix(1, 0, 0, 1, 48.077, 4.75)"><path fill="rgb(255, 255, 255)" fill-opacity="1" d="M -29.5 -3.5 C -29.5 -3.5 29.5 -3.5 29.5 -3.5 C 29.5 -3.5 29.5 3.5 29.5 3.5 C 29.5 3.5 -29.5 3.5 -29.5 3.5 C -29.5 3.5 -29.5 -3.5 -29.5 -3.5 Z" /></g><g opacity="1" transform="matrix(1, 0, 0, 1, 48.077, 4.75)"><path fill="rgb(214, 219, 221)" fill-opacity="1" d="M 28.5 2.5 C 28.5 2.5 -28.5 2.5 -28.5 2.5 C -28.5 2.5 -28.5 -2.5 -28.5 -2.5 C -28.5 -2.5 28.5 -2.5 28.5 -2.5 C 28.5 -2.5 28.5 2.5 28.5 2.5 Z M 30.5 -4.5 C 30.5 -4.5 -30.5 -4.5 -30.5 -4.5 C -30.5 -4.5 -30.5 4.5 -30.5 4.5 C -30.5 4.5 30.5 4.5 30.5 4.5 C 30.5 4.5 30.5 -4.5 30.5 -4.5 Z" /></g><g opacity="1" transform="matrix(1, 0, 0, 1, 23.577, 4.75)"><path fill="rgb(214, 219, 221)" fill-opacity="1" d="M -1 -2.5 C -1 -2.5 1 -2.5 1 -2.5 C 1 -2.5 1 2.5 1 2.5 C 1 2.5 -1 2.5 -1 2.5 C -1 2.5 -1 -2.5 -1 -2.5 Z" /></g><g opacity="1" transform="matrix(1, 0, 0, 1, 29.577, 4.75)"><path fill="rgb(214, 219, 221)" fill-opacity="1" d="M -1 -2.5 C -1 -2.5 1 -2.5 1 -2.5 C 1 -2.5 1 2.5 1 2.5 C 1 2.5 -1 2.5 -1 2.5 C -1 2.5 -1 -2.5 -1 -2.5 Z" /></g><g opacity="1" transform="matrix(1, 0, 0, 1, 35.577, 4.75)"><path fill="rgb(214, 219, 221)" fill-opacity="1" d="M -1 -2.5 C -1 -2.5 1 -2.5 1 -2.5 C 1 -2.5 1 2.5 1 2.5 C 1 2.5 -1 2.5 -1 2.5 C -1 2.5 -1 -2.5 -1 -2.5 Z" /></g><g opacity="1" transform="matrix(1, 0, 0, 1, 41.577, 4.75)"><path fill="rgb(214, 219, 221)" fill-opacity="1" d="M -1 -2.5 C -1 -2.5 1 -2.5 1 -2.5 C 1 -2.5 1 2.5 1 2.5 C 1 2.5 -1 2.5 -1 2.5 C -1 2.5 -1 -2.5 -1 -2.5 Z" /></g><g opacity="1" transform="matrix(1, 0, 0, 1, 47.577, 4.75)"><path fill="rgb(214, 219, 221)" fill-opacity="1" d="M -1 -2.5 C -1 -2.5 1 -2.5 1 -2.5 C 1 -2.5 1 2.5 1 2.5 C 1 2.5 -1 2.5 -1 2.5 C -1 2.5 -1 -2.5 -1 -2.5 Z" /></g><g opacity="1" transform="matrix(1, 0, 0, 1, 53.577, 4.75)"><path fill="rgb(214, 219, 221)" fill-opacity="1" d="M -1 -2.5 C -1 -2.5 1 -2.5 1 -2.5 C 1 -2.5 1 2.5 1 2.5 C 1 2.5 -1 2.5 -1 2.5 C -1 2.5 -1 -2.5 -1 -2.5 Z" /></g><g opacity="1" transform="matrix(1, 0, 0, 1, 59.577, 4.75)"><path fill="rgb(214, 219, 221)" fill-opacity="1" d="M -1 -2.5 C -1 -2.5 1 -2.5 1 -2.5 C 1 -2.5 1 2.5 1 2.5 C 1 2.5 -1 2.5 -1 2.5 C -1 2.5 -1 -2.5 -1 -2.5 Z" /></g><g opacity="1" transform="matrix(1, 0, 0, 1, 65.577, 4.75)"><path fill="rgb(214, 219, 221)" fill-opacity="1" d="M -1 -2.5 C -1 -2.5 1 -2.5 1 -2.5 C 1 -2.5 1 2.5 1 2.5 C 1 2.5 -1 2.5 -1 2.5 C -1 2.5 -1 -2.5 -1 -2.5 Z" /></g><g opacity="1" transform="matrix(1, 0, 0, 1, 71.577, 4.75)"><path fill="rgb(214, 219, 221)" fill-opacity="1" d="M -1 -2.5 C -1 -2.5 1 -2.5 1 -2.5 C 1 -2.5 1 2.5 1 2.5 C 1 2.5 -1 2.5 -1 2.5 C -1 2.5 -1 -2.5 -1 -2.5 Z" /></g><g opacity="1" transform="matrix(1, 0, 0, 1, 23.577, 21.75)"><path fill="rgb(214, 219, 221)" fill-opacity="1" d="M -1 -2.5 C -1 -2.5 1 -2.5 1 -2.5 C 1 -2.5 1 2.5 1 2.5 C 1 2.5 -1 2.5 -1 2.5 C -1 2.5 -1 -2.5 -1 -2.5 Z" /></g><g opacity="1" transform="matrix(1, 0, 0, 1, 23.577, 34.75)"><path fill="rgb(214, 219, 221)" fill-opacity="1" d="M -1 -2.5 C -1 -2.5 1 -2.5 1 -2.5 C 1 -2.5 1 2.5 1 2.5 C 1 2.5 -1 2.5 -1 2.5 C -1 2.5 -1 -2.5 -1 -2.5 Z" /></g><g opacity="1" transform="matrix(1, 0, 0, 1, 23.577, 47.75)"><path fill="rgb(214, 219, 221)" fill-opacity="1" d="M -1 -2.5 C -1 -2.5 1 -2.5 1 -2.5 C 1 -2.5 1 2.5 1 2.5 C 1 2.5 -1 2.5 -1 2.5 C -1 2.5 -1 -2.5 -1 -2.5 Z" /></g><g opacity="1" transform="matrix(1, 0, 0, 1, 23.577, 60.75)"><path fill="rgb(214, 219, 221)" fill-opacity="1" d="M -1 -2.5 C -1 -2.5 1 -2.5 1 -2.5 C 1 -2.5 1 2.5 1 2.5 C 1 2.5 -1 2.5 -1 2.5 C -1 2.5 -1 -2.5 -1 -2.5 Z" /></g><g opacity="1" transform="matrix(1, 0, 0, 1, 23.577, 73.75)"><path fill="rgb(214, 219, 221)" fill-opacity="1" d="M -1 -2.5 C -1 -2.5 1 -2.5 1 -2.5 C 1 -2.5 1 2.5 1 2.5 C 1 2.5 -1 2.5 -1 2.5 C -1 2.5 -1 -2.5 -1 -2.5 Z" /></g><g opacity="1" transform="matrix(1, 0, 0, 1, 35.577, 21.75)"><path fill="rgb(214, 219, 221)" fill-opacity="1" d="M -1 -2.5 C -1 -2.5 1 -2.5 1 -2.5 C 1 -2.5 1 2.5 1 2.5 C 1 2.5 -1 2.5 -1 2.5 C -1 2.5 -1 -2.5 -1 -2.5 Z" /></g><g opacity="1" transform="matrix(1, 0, 0, 1, 35.577, 34.75)"><path fill="rgb(214, 219, 221)" fill-opacity="1" d="M -1 -2.5 C -1 -2.5 1 -2.5 1 -2.5 C 1 -2.5 1 2.5 1 2.5 C 1 2.5 -1 2.5 -1 2.5 C -1 2.5 -1 -2.5 -1 -2.5 Z" /></g><g opacity="1" transform="matrix(1, 0, 0, 1, 35.577, 47.75)"><path fill="rgb(214, 219, 221)" fill-opacity="1" d="M -1 -2.5 C -1 -2.5 1 -2.5 1 -2.5 C 1 -2.5 1 2.5 1 2.5 C 1 2.5 -1 2.5 -1 2.5 C -1 2.5 -1 -2.5 -1 -2.5 Z" /></g><g opacity="1" transform="matrix(1, 0, 0, 1, 35.577, 60.75)"><path fill="rgb(214, 219, 221)" fill-opacity="1" d="M -1 -2.5 C -1 -2.5 1 -2.5 1 -2.5 C 1 -2.5 1 2.5 1 2.5 C 1 2.5 -1 2.5 -1 2.5 C -1 2.5 -1 -2.5 -1 -2.5 Z" /></g><g opacity="1" transform="matrix(1, 0, 0, 1, 35.577, 73.75)"><path fill="rgb(214, 219, 221)" fill-opacity="1" d="M -1 -2.5 C -1 -2.5 1 -2.5 1 -2.5 C 1 -2.5 1 2.5 1 2.5 C 1 2.5 -1 2.5 -1 2.5 C -1 2.5 -1 -2.5 -1 -2.5 Z" /></g><g opacity="1" transform="matrix(1, 0, 0, 1, 41.577, 21.75)"><path fill="rgb(214, 219, 221)" fill-opacity="1" d="M -1 -2.5 C -1 -2.5 1 -2.5 1 -2.5 C 1 -2.5 1 2.5 1 2.5 C 1 2.5 -1 2.5 -1 2.5 C -1 2.5 -1 -2.5 -1 -2.5 Z" /></g><g opacity="1" transform="matrix(1, 0, 0, 1, 41.577, 34.75)"><path fill="rgb(214, 219, 221)" fill-opacity="1" d="M -1 -2.5 C -1 -2.5 1 -2.5 1 -2.5 C 1 -2.5 1 2.5 1 2.5 C 1 2.5 -1 2.5 -1 2.5 C -1 2.5 -1 -2.5 -1 -2.5 Z" /></g><g opacity="1" transform="matrix(1, 0, 0, 1, 41.577, 47.75)"><path fill="rgb(214, 219, 221)" fill-opacity="1" d="M -1 -2.5 C -1 -2.5 1 -2.5 1 -2.5 C 1 -2.5 1 2.5 1 2.5 C 1 2.5 -1 2.5 -1 2.5 C -1 2.5 -1 -2.5 -1 -2.5 Z" /></g><g opacity="1" transform="matrix(1, 0, 0, 1, 42.03, 60.969)"><path fill="rgb(214, 219, 221)" fill-opacity="1" d="M -1 -2.5 C -1 -2.5 1 -2.5 1 -2.5 C 1 -2.5 1 2.5 1 2.5 C 1 2.5 -1 2.5 -1 2.5 C -1 2.5 -1 -2.5 -1 -2.5 Z" /></g><g opacity="1" transform="matrix(1, 0, 0, 1, 41.577, 73.75)"><path fill="rgb(214, 219, 221)" fill-opacity="1" d="M -1 -2.5 C -1 -2.5 1 -2.5 1 -2.5 C 1 -2.5 1 2.5 1 2.5 C 1 2.5 -1 2.5 -1 2.5 C -1 2.5 -1 -2.5 -1 -2.5 Z" /></g><g opacity="1" transform="matrix(1, 0, 0, 1, 53.577, 21.75)"><path fill="rgb(214, 219, 221)" fill-opacity="1" d="M -1 -2.5 C -1 -2.5 1 -2.5 1 -2.5 C 1 -2.5 1 2.5 1 2.5 C 1 2.5 -1 2.5 -1 2.5 C -1 2.5 -1 -2.5 -1 -2.5 Z" /></g><g opacity="1" transform="matrix(1, 0, 0, 1, 53.577, 34.75)"><path fill="rgb(214, 219, 221)" fill-opacity="1" d="M -1 -2.5 C -1 -2.5 1 -2.5 1 -2.5 C 1 -2.5 1 2.5 1 2.5 C 1 2.5 -1 2.5 -1 2.5 C -1 2.5 -1 -2.5 -1 -2.5 Z" /></g><g opacity="1" transform="matrix(1, 0, 0, 1, 53.577, 47.75)"><path fill="rgb(214, 219, 221)" fill-opacity="1" d="M -1 -2.5 C -1 -2.5 1 -2.5 1 -2.5 C 1 -2.5 1 2.5 1 2.5 C 1 2.5 -1 2.5 -1 2.5 C -1 2.5 -1 -2.5 -1 -2.5 Z" /></g><g opacity="1" transform="matrix(1, 0, 0, 1, 53.577, 60.75)"><path fill="rgb(214, 219, 221)" fill-opacity="1" d="M -1 -2.5 C -1 -2.5 1 -2.5 1 -2.5 C 1 -2.5 1 2.5 1 2.5 C 1 2.5 -1 2.5 -1 2.5 C -1 2.5 -1 -2.5 -1 -2.5 Z" /></g><g opacity="1" transform="matrix(1, 0, 0, 1, 53.577, 73.75)"><path fill="rgb(214, 219, 221)" fill-opacity="1" d="M -1 -2.5 C -1 -2.5 1 -2.5 1 -2.5 C 1 -2.5 1 2.5 1 2.5 C 1 2.5 -1 2.5 -1 2.5 C -1 2.5 -1 -2.5 -1 -2.5 Z" /></g><g opacity="1" transform="matrix(1, 0, 0, 1, 59.577, 21.75)"><path fill="rgb(214, 219, 221)" fill-opacity="1" d="M -1 -2.5 C -1 -2.5 1 -2.5 1 -2.5 C 1 -2.5 1 2.5 1 2.5 C 1 2.5 -1 2.5 -1 2.5 C -1 2.5 -1 -2.5 -1 -2.5 Z" /></g><g opacity="1" transform="matrix(1, 0, 0, 1, 59.577, 34.75)"><path fill="rgb(214, 219, 221)" fill-opacity="1" d="M -1 -2.5 C -1 -2.5 1 -2.5 1 -2.5 C 1 -2.5 1 2.5 1 2.5 C 1 2.5 -1 2.5 -1 2.5 C -1 2.5 -1 -2.5 -1 -2.5 Z" /></g><g opacity="1" transform="matrix(1, 0, 0, 1, 59.577, 47.75)"><path fill="rgb(214, 219, 221)" fill-opacity="1" d="M -1 -2.5 C -1 -2.5 1 -2.5 1 -2.5 C 1 -2.5 1 2.5 1 2.5 C 1 2.5 -1 2.5 -1 2.5 C -1 2.5 -1 -2.5 -1 -2.5 Z" /></g><g opacity="1" transform="matrix(1, 0, 0, 1, 59.577, 60.75)"><path fill="rgb(214, 219, 221)" fill-opacity="1" d="M -1 -2.5 C -1 -2.5 1 -2.5 1 -2.5 C 1 -2.5 1 2.5 1 2.5 C 1 2.5 -1 2.5 -1 2.5 C -1 2.5 -1 -2.5 -1 -2.5 Z" /></g><g opacity="1" transform="matrix(1, 0, 0, 1, 59.577, 73.75)"><path fill="rgb(214, 219, 221)" fill-opacity="1" d="M -1 -2.5 C -1 -2.5 1 -2.5 1 -2.5 C 1 -2.5 1 2.5 1 2.5 C 1 2.5 -1 2.5 -1 2.5 C -1 2.5 -1 -2.5 -1 -2.5 Z" /></g><g opacity="1" transform="matrix(1, 0, 0, 1, 71.577, 21.75)"><path fill="rgb(214, 219, 221)" fill-opacity="1" d="M -1 -2.5 C -1 -2.5 1 -2.5 1 -2.5 C 1 -2.5 1 2.5 1 2.5 C 1 2.5 -1 2.5 -1 2.5 C -1 2.5 -1 -2.5 -1 -2.5 Z" /></g><g opacity="1" transform="matrix(1, 0, 0, 1, 71.577, 34.75)"><path fill="rgb(214, 219, 221)" fill-opacity="1" d="M -1 -2.5 C -1 -2.5 1 -2.5 1 -2.5 C 1 -2.5 1 2.5 1 2.5 C 1 2.5 -1 2.5 -1 2.5 C -1 2.5 -1 -2.5 -1 -2.5 Z" /></g><g opacity="1" transform="matrix(1, 0, 0, 1, 71.577, 47.75)"><path fill="rgb(214, 219, 221)" fill-opacity="1" d="M -1 -2.5 C -1 -2.5 1 -2.5 1 -2.5 C 1 -2.5 1 2.5 1 2.5 C 1 2.5 -1 2.5 -1 2.5 C -1 2.5 -1 -2.5 -1 -2.5 Z" /></g><g opacity="1" transform="matrix(1, 0, 0, 1, 71.577, 60.75)"><path fill="rgb(214, 219, 221)" fill-opacity="1" d="M -1 -2.5 C -1 -2.5 1 -2.5 1 -2.5 C 1 -2.5 1 2.5 1 2.5 C 1 2.5 -1 2.5 -1 2.5 C -1 2.5 -1 -2.5 -1 -2.5 Z" /></g><g opacity="1" transform="matrix(1, 0, 0, 1, 71.577, 73.75)"><path fill="rgb(214, 219, 221)" fill-opacity="1" d="M -1 -2.5 C -1 -2.5 1 -2.5 1 -2.5 C 1 -2.5 1 2.5 1 2.5 C 1 2.5 -1 2.5 -1 2.5 C -1 2.5 -1 -2.5 -1 -2.5 Z" /></g></g><g style="-ms-user-select: none;" opacity="1" transform="matrix(1, 0, 0, 1, 1005.75, 19.25)"><g opacity="1" transform="matrix(1, 0, 0, 1, 24.75, 24.751)"><path fill="rgb(255, 255, 255)" fill-opacity="1" d="M 23.329 -2.829 C 23.328 -2.83 23.327 -2.83 23.326 -2.831 C 22.569 -3.587 21.566 -4.002 20.501 -4.001 C 20.501 -4.001 9.656 -4.001 9.656 -4.001 C 9.656 -4.001 17.324 -11.667 17.324 -11.667 C 18.079 -12.423 18.496 -13.428 18.496 -14.497 C 18.496 -15.566 18.078 -16.57 17.324 -17.324 C 16.568 -18.08 15.565 -18.497 14.496 -18.497 C 14.496 -18.497 14.493 -18.497 14.493 -18.497 C 13.423 -18.496 12.42 -18.078 11.668 -17.324 C 11.668 -17.324 3.999 -9.656 3.999 -9.656 C 3.999 -9.656 3.999 -20.497 3.999 -20.497 C 4 -21.566 3.585 -22.57 2.829 -23.327 C 2.829 -23.327 2.829 -23.328 2.829 -23.329 C 2.073 -24.084 1.067 -24.501 0.001 -24.501 C -1.068 -24.501 -2.073 -24.085 -2.829 -23.329 C -3.585 -22.573 -4.001 -21.57 -4.001 -20.501 C -4.001 -20.501 -4.001 -9.656 -4.001 -9.656 C -4.001 -9.656 -11.665 -17.322 -11.665 -17.322 C -12.42 -18.079 -13.423 -18.496 -14.493 -18.497 C -14.493 -18.497 -14.496 -18.497 -14.496 -18.497 C -15.564 -18.497 -16.57 -18.081 -17.324 -17.326 C -18.08 -16.571 -18.496 -15.566 -18.496 -14.497 C -18.496 -13.428 -18.08 -12.423 -17.324 -11.667 C -17.324 -11.667 -9.657 -4.001 -9.657 -4.001 C -9.657 -4.001 -20.501 -4.001 -20.501 -4.001 C -21.569 -4.001 -22.574 -3.584 -23.329 -2.829 C -24.085 -2.073 -24.5 -1.068 -24.499 -0.001 C -24.499 1.068 -24.085 2.072 -23.329 2.827 C -23.329 2.827 -23.327 2.829 -23.327 2.829 C -22.57 3.585 -21.566 4 -20.501 3.999 C -20.501 3.999 -9.657 3.999 -9.657 3.999 C -9.657 3.999 -17.324 11.667 -17.324 11.667 C -18.08 12.422 -18.496 13.426 -18.496 14.495 C -18.496 15.564 -18.079 16.57 -17.324 17.324 C -16.568 18.08 -15.564 18.495 -14.496 18.495 C -14.496 18.495 -14.493 18.495 -14.493 18.495 C -13.423 18.494 -12.42 18.078 -11.668 17.324 C -11.668 17.324 -3.999 9.656 -3.999 9.656 C -3.999 9.656 -3.999 20.495 -3.999 20.495 C -4.001 21.564 -3.587 22.57 -2.831 23.327 C -2.83 23.327 -2.829 23.328 -2.829 23.329 C -2.073 24.084 -1.068 24.5 -0.002 24.499 C 1.067 24.5 2.073 24.085 2.829 23.329 C 3.585 22.573 4.001 21.568 4.001 20.499 C 4.001 20.499 3.999 9.656 3.999 9.656 C 3.999 9.656 11.664 17.32 11.664 17.32 C 12.419 18.077 13.423 18.494 14.493 18.495 C 14.493 18.495 14.496 18.495 14.496 18.495 C 15.565 18.495 16.57 18.079 17.324 17.324 C 18.079 16.569 18.496 15.564 18.496 14.495 C 18.496 13.426 18.079 12.423 17.324 11.667 C 17.324 11.667 9.656 3.999 9.656 3.999 C 9.656 3.999 20.499 3.999 20.499 3.999 C 20.499 3.999 20.501 3.999 20.501 3.999 C 21.569 3.999 22.574 3.584 23.329 2.829 C 24.085 2.073 24.5 1.066 24.499 -0.001 C 24.499 -1.07 24.084 -2.074 23.329 -2.829 Z" /></g><g opacity="1" transform="matrix(1, 0, 0, 1, 14.046, 14.159)"><path fill="rgb(0, 158, 219)" fill-opacity="1" d="M 4.889 3.361 C 4.889 3.361 -3.084 -4.611 -3.084 -4.611 C -3.475 -5.002 -4.108 -5.002 -4.499 -4.611 C -4.889 -4.221 -4.889 -3.588 -4.499 -3.197 C -4.499 -3.197 3.7 5.002 3.7 5.002 C 4.022 4.403 4.425 3.854 4.889 3.361 Z" /></g><g opacity="1" transform="matrix(1, 0, 0, 1, 35.04, 34.866)"><path fill="rgb(0, 158, 219)" fill-opacity="1" d="M 4.914 3.673 C 4.914 3.673 -4.237 -5.478 -4.237 -5.478 C -4.559 -4.861 -4.916 -4.267 -5.303 -3.716 C -5.303 -3.716 3.5 5.087 3.5 5.087 C 3.89 5.478 4.523 5.478 4.914 5.087 C 5.304 4.697 5.304 4.064 4.914 3.673 Z" /></g><g opacity="1" transform="matrix(1, 0, 0, 1, 39.231, 24.75)"><path fill="rgb(198, 79, 150)" fill-opacity="1" d="M 6.019 -1 C 6.019 -1 -6.635 -1 -6.635 -1 C -6.704 -0.368 -6.835 0.306 -7.019 1 C -7.019 1 6.019 1 6.019 1 C 6.571 1 7.019 0.552 7.019 0 C 7.019 -0.552 6.571 -1 6.019 -1 Z" /></g><g opacity="1" transform="matrix(1, 0, 0, 1, 10.269, 24.75)"><path fill="rgb(198, 79, 150)" fill-opacity="1" d="M 6.635 -1 C 6.635 -1 -6.019 -1 -6.019 -1 C -6.571 -1 -7.019 -0.552 -7.019 0 C -7.019 0.552 -6.571 1 -6.019 1 C -6.019 1 7.019 1 7.019 1 C 6.836 0.306 6.704 -0.368 6.635 -1 Z" /></g><g opacity="1" transform="matrix(1, 0, 0, 1, 14.461, 34.865)"><path fill="rgb(40, 58, 135)" fill-opacity="1" d="M 4.238 -5.478 C 4.238 -5.478 -4.913 3.673 -4.913 3.673 C -5.304 4.064 -5.304 4.697 -4.913 5.087 C -4.523 5.478 -3.89 5.478 -3.499 5.087 C -3.499 5.087 5.304 -3.716 5.304 -3.716 C 4.916 -4.267 4.56 -4.86 4.238 -5.478 Z" /></g><g opacity="1" transform="matrix(1, 0, 0, 1, 35.455, 14.158)"><path fill="rgb(40, 58, 135)" fill-opacity="1" d="M 4.499 -4.611 C 4.108 -5.002 3.475 -5.002 3.085 -4.611 C 3.085 -4.611 -4.888 3.361 -4.888 3.361 C -4.423 3.855 -4.023 4.403 -3.701 5.002 C -3.701 5.002 4.499 -3.197 4.499 -3.197 C 4.889 -3.587 4.889 -4.22 4.499 -4.611 Z" /></g><g opacity="1" transform="matrix(1, 0, 0, 1, 24.75, 9)"><path fill="rgb(63, 175, 173)" fill-opacity="1" d="M 0 5.848 C 0.34 5.848 0.672 5.877 1 5.917 C 1 5.917 1 -4.917 1 -4.917 C 1 -5.47 0.552 -5.917 0 -5.917 C -0.552 -5.917 -1 -5.47 -1 -4.917 C -1 -4.917 -1 5.917 -1 5.917 C -0.672 5.877 -0.34 5.848 0 5.848 Z" /></g><g opacity="1" transform="matrix(1, 0, 0, 1, 24.75, 40.295)"><path fill="rgb(63, 175, 173)" fill-opacity="1" d="M 0 -5.811 C -0.34 -5.811 -0.672 -5.87 -1 -5.955 C -1 -5.955 -1 4.955 -1 4.955 C -1 5.508 -0.552 5.955 0 5.955 C 0.552 5.955 1 5.508 1 4.955 C 1 4.955 1 -5.955 1 -5.955 C 0.672 -5.87 0.34 -5.811 0 -5.811 Z" /></g></g><g style="-ms-user-select: none;" opacity="1" transform="matrix(1, 0, 0, 1, 1020.59, 32.266)"><g opacity="1" transform="matrix(1, 0, 0, 1, 9.91, 11.735)"><path fill="rgb(255, 255, 255)" fill-opacity="1" d="M 0 9.735 C 4.368 9.735 7.91 2.265 7.91 -2.004 C 7.91 -6.274 4.368 -9.735 0 -9.735 C -4.368 -9.735 -7.91 -6.274 -7.91 -2.004 C -7.91 2.265 -4.368 9.735 0 9.735 Z" /></g><g opacity="1" transform="matrix(1, 0, 0, 1, 9.91, 11.735)"><path fill-opacity="0" stroke="rgb(214, 219, 221)" stroke-linecap="butt" stroke-linejoin="miter" stroke-miterlimit="4" stroke-opacity="1" stroke-width="2" d="M 0 9.735 C 4.368 9.735 7.91 2.265 7.91 -2.004 C 7.91 -6.274 4.368 -9.735 0 -9.735 C -4.368 -9.735 -7.91 -6.274 -7.91 -2.004 C -7.91 2.265 -4.368 9.735 0 9.735 Z" /></g><g opacity="1" transform="matrix(1, 0, 0, 1, 9.91, 24.812)"><path fill="rgb(255, 255, 255)" fill-opacity="1" d="M -2 -3.342 C -2 -3.342 2 -3.342 2 -3.342 C 2 -3.342 2 3.342 2 3.342 C 2 3.342 -2 3.342 -2 3.342 C -2 3.342 -2 -3.342 -2 -3.342 Z" /></g><g opacity="1" transform="matrix(1, 0, 0, 1, 9.91, 24.812)"><path fill-opacity="0" stroke="rgb(214, 219, 221)" stroke-linecap="butt" stroke-linejoin="miter" stroke-miterlimit="4" stroke-opacity="1" stroke-width="2" d="M -2 -3.342 C -2 -3.342 2 -3.342 2 -3.342 C 2 -3.342 2 3.342 2 3.342 C 2 3.342 -2 3.342 -2 3.342 C -2 3.342 -2 -3.342 -2 -3.342 Z" /></g></g></g><g opacity="1" clip-path="url(&quot;#cp_7moKHOeS&quot;)" transform="matrix(1, 0, 0, 1, 343.5, 0)"><g style="-ms-user-select: none;" opacity="1" transform="matrix(1, 0, 0, 1, 110.815, 159.109)"><g opacity="1" transform="matrix(1, 0, 0, 1, 117.804, 10.196)"><path fill-opacity="0" stroke="rgb(214, 219, 221)" stroke-dasharray="3px, 2px" stroke-dashoffset="0" stroke-linecap="butt" stroke-linejoin="miter" stroke-miterlimit="4" stroke-opacity="1" stroke-width="2" d="M -115.804 -8.195 C -115.804 -8.195 -106.736 8.195 -106.736 8.195 C -106.736 8.195 104.381 8.195 104.381 8.195 C 104.381 8.195 115.804 -7.227 115.804 -7.227" /></g></g><g style="-ms-user-select: none;" opacity="1" transform="matrix(1, 0, 0, 1, 110.815, 159.109)"><g opacity="1" transform="matrix(1, 0, 0, 1, 117.804, 10.196)"><path fill-opacity="0" stroke="rgb(214, 219, 221)" stroke-dasharray="3px, 2px" stroke-dashoffset="0" stroke-linecap="butt" stroke-linejoin="miter" stroke-miterlimit="4" stroke-opacity="1" stroke-width="2" d="M -115.804 -8.195 C -115.804 -8.195 -106.736 8.195 -106.736 8.195 C -106.736 8.195 104.381 8.195 104.381 8.195 C 104.381 8.195 115.804 -7.227 115.804 -7.227" /></g></g><g style="-ms-user-select: none;" opacity="1" transform="matrix(1, 0, 0, 1, 141.57, 173.593)"><g opacity="1" transform="matrix(1, 0, 0, 1, 4.25, 4.25)"><path style="display: block;" fill="rgb(63, 175, 173)" fill-opacity="1" d="M 4 0 C 4 2.209 2.21 4 0 4 C -2.21 4 -4 2.209 -4 0 C -4 -2.209 -2.21 -4 0 -4 C 2.21 -4 4 -2.209 4 0 Z" /></g></g><g style="-ms-user-select: none;" opacity="1" transform="matrix(1, 0, 0, 1, 156.589, 173.593)"><g opacity="1" transform="matrix(1, 0, 0, 1, 4.25, 4.25)"><path style="display: block;" fill="rgb(63, 175, 173)" fill-opacity="1" d="M 4 0 C 4 2.209 2.21 4 0 4 C -2.21 4 -4 2.209 -4 0 C -4 -2.209 -2.21 -4 0 -4 C 2.21 -4 4 -2.209 4 0 Z" /></g></g><g style="-ms-user-select: none;" opacity="1" transform="matrix(1, 0, 0, 1, 171.609, 173.593)"><g opacity="1" transform="matrix(1, 0, 0, 1, 4.25, 4.25)"><path style="display: block;" fill="rgb(63, 175, 173)" fill-opacity="1" d="M 4 0 C 4 2.209 2.21 4 0 4 C -2.21 4 -4 2.209 -4 0 C -4 -2.209 -2.21 -4 0 -4 C 2.21 -4 4 -2.209 4 0 Z" /></g></g><g style="-ms-user-select: none;" opacity="1" transform="matrix(1, 0, 0, 1, 339.134, 158.881)"><g opacity="1" transform="matrix(1, 0, 0, 1, 4.25, 4.25)"><path style="display: none;" fill="rgb(198, 79, 150)" fill-opacity="1" d="M 4 0 C 4 2.209 2.21 4 0 4 C -2.209 4 -4 2.209 -4 0 C -4 -2.209 -2.209 -4 0 -4 C 2.21 -4 4 -2.209 4 0 Z" /></g></g><g style="-ms-user-select: none;" opacity="1" transform="matrix(1, 0, 0, 1, 338.319, 159.9)"><g opacity="1" transform="matrix(1, 0, 0, 1, 4.25, 4.25)"><path style="display: none;" fill="rgb(198, 79, 150)" fill-opacity="1" d="M 4 0 C 4 2.209 2.21 4 0 4 C -2.209 4 -4 2.209 -4 0 C -4 -2.209 -2.209 -4 0 -4 C 2.21 -4 4 -2.209 4 0 Z" /></g></g><g style="-ms-user-select: none;" opacity="1" transform="matrix(1, 0, 0, 1, 337.981, 160.322)"><g opacity="1" transform="matrix(1, 0, 0, 1, 4.25, 4.25)"><path style="display: none;" fill="rgb(198, 79, 150)" fill-opacity="1" d="M 4 0 C 4 2.209 2.21 4 0 4 C -2.209 4 -4 2.209 -4 0 C -4 -2.209 -2.209 -4 0 -4 C 2.21 -4 4 -2.209 4 0 Z" /></g></g><g style="-ms-user-select: none;" opacity="1" transform="matrix(1, 0, 0, 1, 339.364, 158.593)"><g opacity="1" transform="matrix(1, 0, 0, 1, 4.25, 4.25)"><path style="display: none;" fill="rgb(40, 56, 135)" fill-opacity="1" d="M 4 0 C 4 2.209 2.21 4 0 4 C -2.209 4 -4 2.209 -4 0 C -4 -2.209 -2.209 -4 0 -4 C 2.21 -4 4 -2.209 4 0 Z" /></g></g><g style="-ms-user-select: none;" opacity="1" transform="matrix(1, 0, 0, 1, 339.364, 158.593)"><g opacity="1" transform="matrix(1, 0, 0, 1, 4.25, 4.25)"><path style="display: none;" fill="rgb(40, 56, 135)" fill-opacity="1" d="M 4 0 C 4 2.209 2.21 4 0 4 C -2.209 4 -4 2.209 -4 0 C -4 -2.209 -2.209 -4 0 -4 C 2.21 -4 4 -2.209 4 0 Z" /></g></g><g style="-ms-user-select: none;" opacity="1" transform="matrix(1, 0, 0, 1, 339.364, 158.593)"><g opacity="1" transform="matrix(1, 0, 0, 1, 4.25, 4.25)"><path style="display: none;" fill="rgb(40, 56, 135)" fill-opacity="1" d="M 4 0 C 4 2.209 2.21 4 0 4 C -2.209 4 -4 2.209 -4 0 C -4 -2.209 -2.209 -4 0 -4 C 2.21 -4 4 -2.209 4 0 Z" /></g></g><g style="-ms-user-select: none;" opacity="1" transform="matrix(1, 0, 0, 1, 337.338, 161.126)"><g opacity="1" transform="matrix(1, 0, 0, 1, 4.25, 4.25)"><path style="display: none;" fill="rgb(12, 158, 216)" fill-opacity="1" d="M 4 0 C 4 2.209 2.21 4 0 4 C -2.209 4 -4 2.209 -4 0 C -4 -2.209 -2.209 -4 0 -4 C 2.21 -4 4 -2.209 4 0 Z" /></g></g><g style="-ms-user-select: none;" opacity="1" transform="matrix(1, 0, 0, 1, 338.905, 159.167)"><g opacity="1" transform="matrix(1, 0, 0, 1, 4.25, 4.25)"><path style="display: none;" fill="rgb(12, 158, 216)" fill-opacity="1" d="M 4 0 C 4 2.209 2.21 4 0 4 C -2.209 4 -4 2.209 -4 0 C -4 -2.209 -2.209 -4 0 -4 C 2.21 -4 4 -2.209 4 0 Z" /></g></g><g style="-ms-user-select: none;" opacity="1" transform="matrix(1, 0, 0, 1, 337.765, 160.592)"><g opacity="1" transform="matrix(1, 0, 0, 1, 4.25, 4.25)"><path style="display: none;" fill="rgb(12, 158, 216)" fill-opacity="1" d="M 4 0 C 4 2.209 2.21 4 0 4 C -2.209 4 -4 2.209 -4 0 C -4 -2.209 -2.209 -4 0 -4 C 2.21 -4 4 -2.209 4 0 Z" /></g></g></g><g opacity="1" clip-path="url(&quot;#cp_gpMZFlHg&quot;)" transform="matrix(1, 0, 0, 1, 12.5, 0)"><g style="-ms-user-select: none;" opacity="1" transform="matrix(1, 0, 0, 1, 342.423, 62.136)"><g opacity="1" transform="matrix(1, 0, 0, 1, 51.577, 61.271)"><path fill-opacity="0" stroke="rgb(214, 219, 221)" stroke-linecap="butt" stroke-linejoin="miter" stroke-miterlimit="4" stroke-opacity="1" stroke-width="2" d="M -42 52.907 C -42 52.907 42 52.907 42 52.907 C 42 52.907 42 -52.907 42 -52.907 C 42 -52.907 -42 -52.907 -42 -52.907 C -42 -52.907 -42 52.907 -42 52.907 Z" /></g><g opacity="1" transform="matrix(1, 0, 0, 1, 23.141, 5.182)"><path fill-opacity="0" stroke="rgb(214, 219, 221)" stroke-linecap="butt" stroke-linejoin="miter" stroke-miterlimit="4" stroke-opacity="1" stroke-width="2" d="M -3.196 3.182 C -3.196 3.182 -3.196 0.015 -3.196 0.015 C -3.196 -1.751 -1.765 -3.182 0.001 -3.182 C 1.766 -3.182 3.196 -1.751 3.196 0.015 C 3.196 0.015 3.196 3.182 3.196 3.182 C 3.196 3.182 -3.196 3.182 -3.196 3.182 Z" /></g><g opacity="1" transform="matrix(1, 0, 0, 1, 42.454, 104.08)"><path fill-opacity="0" stroke="rgb(214, 219, 221)" stroke-linecap="butt" stroke-linejoin="miter" stroke-miterlimit="4" stroke-opacity="1" stroke-width="2" d="M -3.305 3.306 C -3.305 3.306 3.305 3.306 3.305 3.306 C 3.305 3.306 3.305 -3.306 3.305 -3.306 C 3.305 -3.306 -3.305 -3.306 -3.305 -3.306 C -3.305 -3.306 -3.305 3.306 -3.305 3.306 Z" /></g><g opacity="1" transform="matrix(1, 0, 0, 1, 32.094, 104.08)"><path fill-opacity="0" stroke="rgb(214, 219, 221)" stroke-linecap="butt" stroke-linejoin="miter" stroke-miterlimit="4" stroke-opacity="1" stroke-width="2" d="M -3.305 3.306 C -3.305 3.306 3.305 3.306 3.305 3.306 C 3.305 3.306 3.305 -3.306 3.305 -3.306 C 3.305 -3.306 -3.305 -3.306 -3.305 -3.306 C -3.305 -3.306 -3.305 3.306 -3.305 3.306 Z" /></g><g opacity="1" transform="matrix(1, 0, 0, 1, 21.734, 104.08)"><path fill-opacity="0" stroke="rgb(214, 219, 221)" stroke-linecap="butt" stroke-linejoin="miter" stroke-miterlimit="4" stroke-opacity="1" stroke-width="2" d="M -3.305 3.306 C -3.305 3.306 3.305 3.306 3.305 3.306 C 3.305 3.306 3.305 -3.306 3.305 -3.306 C 3.305 -3.306 -3.305 -3.306 -3.305 -3.306 C -3.305 -3.306 -3.305 3.306 -3.305 3.306 Z" /></g><g opacity="1" transform="matrix(1, 0, 0, 1, 76.577, 104.08)"><path fill-opacity="0" stroke="rgb(214, 219, 221)" stroke-linecap="butt" stroke-linejoin="miter" stroke-miterlimit="4" stroke-opacity="1" stroke-width="2" d="M -9.359 3.306 C -9.359 3.306 9.359 3.306 9.359 3.306 C 9.359 3.306 9.359 -3.306 9.359 -3.306 C 9.359 -3.306 -9.359 -3.306 -9.359 -3.306 C -9.359 -3.306 -9.359 3.306 -9.359 3.306 Z" /></g><g opacity="1" transform="matrix(1, 0, 0, 1, 0, 0)"><path fill-opacity="0" stroke="rgb(214, 219, 221)" stroke-linecap="butt" stroke-linejoin="miter" stroke-miterlimit="4" stroke-opacity="1" stroke-width="2" d="M 84.813 17.421 C 84.813 17.421 84.813 62.869 84.813 62.869 C 84.813 62.869 84.813 17.421 84.813 17.421 Z" /></g><g opacity="1" transform="matrix(1, 0, 0, 1, 0, 0)"><path fill-opacity="0" stroke="rgb(214, 219, 221)" stroke-linecap="butt" stroke-linejoin="miter" stroke-miterlimit="4" stroke-opacity="1" stroke-width="2" d="M 81.319 17.421 C 81.319 17.421 81.319 62.869 81.319 62.869 C 81.319 62.869 81.319 17.421 81.319 17.421 Z" /></g><g opacity="1" transform="matrix(1, 0, 0, 1, 0, 0)"><path fill-opacity="0" stroke="rgb(214, 219, 221)" stroke-linecap="butt" stroke-linejoin="miter" stroke-miterlimit="4" stroke-opacity="1" stroke-width="2" d="M 77.825 17.421 C 77.825 17.421 77.825 62.869 77.825 62.869 C 77.825 62.869 77.825 17.421 77.825 17.421 Z" /></g><g opacity="1" transform="matrix(1, 0, 0, 1, 0, 0)"><path fill-opacity="0" stroke="rgb(214, 219, 221)" stroke-linecap="butt" stroke-linejoin="miter" stroke-miterlimit="4" stroke-opacity="1" stroke-width="2" d="M 74.331 17.421 C 74.331 17.421 74.331 37.538 74.331 37.538 C 74.331 37.538 74.331 17.421 74.331 17.421 Z" /></g><g opacity="1" transform="matrix(1, 0, 0, 1, 0, 0)"><path fill-opacity="0" stroke="rgb(214, 219, 221)" stroke-linecap="butt" stroke-linejoin="miter" stroke-miterlimit="4" stroke-opacity="1" stroke-width="2" d="M 70.837 17.421 C 70.837 17.421 70.837 37.538 70.837 37.538 C 70.837 37.538 70.837 17.421 70.837 17.421 Z" /></g><g opacity="1" transform="matrix(1, 0, 0, 1, 5.788, 99.941)"><path fill-opacity="0" stroke="rgb(214, 219, 221)" stroke-linecap="butt" stroke-linejoin="miter" stroke-miterlimit="4" stroke-opacity="1" stroke-width="2" d="M 3.789 5.577 C 1.813 5.577 -3.789 4.799 -3.789 0 C -3.789 -4.799 1.813 -5.577 3.789 -5.577 C 3.789 -5.577 3.789 3.577 3.789 3.577 C 3.789 3.577 3.789 5.577 3.789 5.577 Z" /></g><g opacity="1" transform="matrix(1, 0, 0, 1, 97.365, 99.941)"><path fill-opacity="0" stroke="rgb(214, 219, 221)" stroke-linecap="butt" stroke-linejoin="miter" stroke-miterlimit="4" stroke-opacity="1" stroke-width="2" d="M -3.788 -5.577 C -1.812 -5.577 3.788 -4.799 3.788 0 C 3.788 4.799 -1.812 5.577 -3.788 5.577 C -3.788 5.577 -3.788 -3.577 -3.788 -3.577 C -3.788 -3.577 -3.788 -5.577 -3.788 -5.577 Z" /></g></g><g style="-ms-user-select: none;" opacity="1" transform="matrix(1, 0, 0, 1, 359.747, 95.518)"><g opacity="1" transform="matrix(1, 0, 0, 1, 4.251, 4.25)"><path fill="rgb(214, 219, 221)" fill-opacity="1" d="M 0 -2.043 C 1.126 -2.043 2.043 -1.127 2.043 -0.001 C 2.043 1.126 1.126 2.043 0 2.043 C -1.127 2.043 -2.044 1.126 -2.044 -0.001 C -2.044 -1.127 -1.127 -2.043 0 -2.043 Z M 0 -4 C -2.209 -4 -4 -2.21 -4 -0.001 C -4 2.209 -2.209 4 0 4 C 2.208 4 4 2.209 4 -0.001 C 4 -2.21 2.208 -4 0 -4 Z" /></g><g opacity="1" transform="matrix(1, 0, 0, 1, 21.51, 4.25)"><path fill="rgb(214, 219, 221)" fill-opacity="1" d="M 0 -2.043 C 1.127 -2.043 2.044 -1.127 2.044 -0.001 C 2.044 1.126 1.127 2.043 0 2.043 C -1.126 2.043 -2.043 1.126 -2.043 -0.001 C -2.043 -1.127 -1.126 -2.043 0 -2.043 Z M 0 -4 C -2.209 -4 -4 -2.21 -4 -0.001 C -4 2.209 -2.209 4 0 4 C 2.209 4 4 2.209 4 -0.001 C 4 -2.21 2.209 -4 0 -4 Z" /></g><g opacity="1" transform="matrix(1, 0, 0, 1, 38.77, 20.116)"><path fill="rgb(214, 219, 221)" fill-opacity="1" d="M 0 -2.043 C 1.127 -2.043 2.044 -1.127 2.044 0 C 2.044 1.126 1.127 2.043 0 2.043 C -1.126 2.043 -2.043 1.126 -2.043 0 C -2.043 -1.127 -1.126 -2.043 0 -2.043 Z M 0 -4 C -2.209 -4 -4 -2.21 -4 0 C -4 2.209 -2.209 4 0 4 C 2.209 4 4 2.209 4 0 C 4 -2.21 2.209 -4 0 -4 Z" /></g><g opacity="1" transform="matrix(1, 0, 0, 1, 21.51, 51.848)"><path fill="rgb(214, 219, 221)" fill-opacity="1" d="M 0 -2.044 C 1.127 -2.044 2.044 -1.127 2.044 -0.001 C 2.044 1.126 1.127 2.044 0 2.044 C -1.126 2.044 -2.043 1.126 -2.043 -0.001 C -2.043 -1.127 -1.126 -2.044 0 -2.044 Z M 0 -4.001 C -2.209 -4.001 -4 -2.21 -4 -0.001 C -4 2.209 -2.209 4.001 0 4.001 C 2.209 4.001 4 2.209 4 -0.001 C 4 -2.21 2.209 -4.001 0 -4.001 Z" /></g><g opacity="1" transform="matrix(1, 0, 0, 1, 38.77, 51.847)"><path fill="rgb(214, 219, 221)" fill-opacity="1" d="M 0 -2.043 C 1.127 -2.043 2.044 -1.127 2.044 0 C 2.044 1.126 1.127 2.043 0 2.043 C -1.126 2.043 -2.043 1.126 -2.043 0 C -2.043 -1.127 -1.126 -2.043 0 -2.043 Z M 0 -4 C -2.208 -4 -4 -2.21 -4 0 C -4 2.209 -2.208 4 0 4 C 2.209 4 4 2.209 4 0 C 4 -2.21 2.209 -4 0 -4 Z" /></g><g opacity="1" transform="matrix(1, 0, 0, 1, 38.77, 35.982)"><path fill="rgb(214, 219, 221)" fill-opacity="1" d="M 0 -2.043 C 1.127 -2.043 2.044 -1.126 2.044 0 C 2.044 1.127 1.127 2.043 0 2.043 C -1.126 2.043 -2.043 1.127 -2.043 0 C -2.043 -1.126 -1.126 -2.043 0 -2.043 Z M 0 -4 C -2.208 -4 -4 -2.209 -4 0 C -4 2.21 -2.208 4 0 4 C 2.209 4 4 2.21 4 0 C 4 -2.209 2.209 -4 0 -4 Z" /></g><g opacity="1" transform="matrix(1, 0, 0, 1, 4.25, 51.847)"><path fill="rgb(214, 219, 221)" fill-opacity="1" d="M 0 -2.043 C 1.127 -2.043 2.044 -1.126 2.044 0 C 2.044 1.127 1.127 2.043 0 2.043 C -1.126 2.043 -2.043 1.127 -2.043 0 C -2.043 -1.126 -1.126 -2.043 0 -2.043 Z M 0 -4 C -2.208 -4 -4 -2.209 -4 0 C -4 2.21 -2.208 4 0 4 C 2.209 4 4 2.21 4 0 C 4 -2.209 2.209 -4 0 -4 Z" /></g><g opacity="1" transform="matrix(1, 0, 0, 1, 4.25, 35.982)"><path fill="rgb(214, 219, 221)" fill-opacity="1" d="M 0 -2.043 C 1.127 -2.043 2.044 -1.126 2.044 0 C 2.044 1.127 1.127 2.043 0 2.043 C -1.126 2.043 -2.043 1.127 -2.043 0 C -2.043 -1.126 -1.126 -2.043 0 -2.043 Z M 0 -4 C -2.208 -4 -4 -2.209 -4 0 C -4 2.21 -2.208 4 0 4 C 2.209 4 4 2.21 4 0 C 4 -2.209 2.209 -4 0 -4 Z" /></g><g opacity="1" transform="matrix(1, 0, 0, 1, 21.51, 35.982)"><path fill="rgb(214, 219, 221)" fill-opacity="1" d="M 0 -2.043 C 1.127 -2.043 2.044 -1.126 2.044 0 C 2.044 1.127 1.127 2.043 0 2.043 C -1.126 2.043 -2.043 1.127 -2.043 0 C -2.043 -1.126 -1.126 -2.043 0 -2.043 Z M 0 -4 C -2.208 -4 -4 -2.209 -4 0 C -4 2.21 -2.208 4 0 4 C 2.209 4 4 2.21 4 0 C 4 -2.209 2.209 -4 0 -4 Z" /></g><g opacity="1" transform="matrix(1, 0, 0, 1, 21.51, 20.116)"><path fill="rgb(214, 219, 221)" fill-opacity="1" d="M 0 -2.043 C 1.127 -2.043 2.044 -1.127 2.044 0 C 2.044 1.126 1.127 2.043 0 2.043 C -1.126 2.043 -2.043 1.126 -2.043 0 C -2.043 -1.127 -1.126 -2.043 0 -2.043 Z M 0 -4 C -2.209 -4 -4 -2.21 -4 0 C -4 2.209 -2.209 4 0 4 C 2.209 4 4 2.209 4 0 C 4 -2.21 2.209 -4 0 -4 Z" /></g><g opacity="1" transform="matrix(1, 0, 0, 1, 4.25, 20.116)"><path fill="rgb(214, 219, 221)" fill-opacity="1" d="M 0 -2.043 C 1.127 -2.043 2.044 -1.126 2.044 0 C 2.044 1.127 1.127 2.043 0 2.043 C -1.126 2.043 -2.043 1.127 -2.043 0 C -2.043 -1.126 -1.126 -2.043 0 -2.043 Z M 0 -4 C -2.208 -4 -4 -2.209 -4 0 C -4 2.21 -2.208 4 0 4 C 2.209 4 4 2.21 4 0 C 4 -2.209 2.209 -4 0 -4 Z" /></g><g opacity="1" transform="matrix(1, 0, 0, 1, 38.77, 4.25)"><path fill="rgb(214, 219, 221)" fill-opacity="1" d="M 0 -2.043 C 1.127 -2.043 2.044 -1.127 2.044 -0.001 C 2.044 1.126 1.127 2.043 0 2.043 C -1.126 2.043 -2.043 1.126 -2.043 -0.001 C -2.043 -1.127 -1.126 -2.043 0 -2.043 Z M 0 -4 C -2.209 -4 -4 -2.21 -4 -0.001 C -4 2.209 -2.209 4 0 4 C 2.209 4 4 2.209 4 -0.001 C 4 -2.21 2.209 -4 0 -4 Z" /></g></g><g opacity="0" clip-path="url(&quot;#cp_lXEAyHnw&quot;)" transform="matrix(1, 0, 0, 1, 394.5, 143.43)"><g style="-ms-user-select: none;" opacity="1" transform="matrix(1, 0, 0, 1, 0, 0)"><g opacity="1" transform="matrix(1, 0, 0, 1, 4.25, 4.25)"><path fill="rgb(198, 79, 150)" fill-opacity="1" d="M -227 -177.501 C -227 -177.501 863 -177.501 863 -177.501 C 863 -177.501 863 22.499 863 22.499 C 863 22.499 -227 22.499 -227 22.499 C -227 22.499 -227 -177.501 -227 -177.501 Z M -227 22.499 C -227 22.499 863 22.499 863 22.499 C 863 22.499 863 -177.501 863 -177.501 C 863 -177.501 -227 -177.501 -227 -177.501 C -227 -177.501 -227 22.499 -227 22.499 Z M 4.712 0.241 C 4.712 2.71 2.712 4.712 0.241 4.712 C -2.229 4.712 -4.231 2.71 -4.231 0.241 C -4.231 -2.228 -2.229 -4.231 0.241 -4.231 C 2.712 -4.231 4.712 -2.228 4.712 0.241 Z" /><g opacity="1" transform="matrix(1, 0, 0, 1, 0, 0)" /></g></g></g><g opacity="0.927033" clip-path="url(&quot;#cp_99S17tRj&quot;)" transform="matrix(1, 0, 0, 1, 394.5, 111.196)"><g style="-ms-user-select: none;" opacity="1" transform="matrix(1, 0, 0, 1, 0, 0)"><g opacity="1" transform="matrix(1, 0, 0, 1, 4.25, 4.25)"><path fill="rgb(198, 79, 150)" fill-opacity="1" d="M -227 -177.501 C -227 -177.501 863 -177.501 863 -177.501 C 863 -177.501 863 22.499 863 22.499 C 863 22.499 -227 22.499 -227 22.499 C -227 22.499 -227 -177.501 -227 -177.501 Z M -227 22.499 C -227 22.499 863 22.499 863 22.499 C 863 22.499 863 -177.501 863 -177.501 C 863 -177.501 -227 -177.501 -227 -177.501 C -227 -177.501 -227 22.499 -227 22.499 Z M 4.712 0.241 C 4.712 2.71 2.712 4.712 0.241 4.712 C -2.229 4.712 -4.231 2.71 -4.231 0.241 C -4.231 -2.228 -2.229 -4.231 0.241 -4.231 C 2.712 -4.231 4.712 -2.228 4.712 0.241 Z" /><g opacity="1" transform="matrix(1, 0, 0, 1, 0, 0)" /></g></g></g><g opacity="0.507676" clip-path="url(&quot;#cp_uksZzOUl&quot;)" transform="matrix(1, 0, 0, 1, 377, 95.229)"><g style="-ms-user-select: none;" opacity="1" transform="matrix(1, 0, 0, 1, 0, 0)"><g opacity="1" transform="matrix(1, 0, 0, 1, 4.25, 4.25)"><path fill="rgb(198, 79, 150)" fill-opacity="1" d="M -227 -177.501 C -227 -177.501 863 -177.501 863 -177.501 C 863 -177.501 863 22.499 863 22.499 C 863 22.499 -227 22.499 -227 22.499 C -227 22.499 -227 -177.501 -227 -177.501 Z M -227 22.499 C -227 22.499 863 22.499 863 22.499 C 863 22.499 863 -177.501 863 -177.501 C 863 -177.501 -227 -177.501 -227 -177.501 C -227 -177.501 -227 22.499 -227 22.499 Z M 4.712 0.241 C 4.712 2.71 2.712 4.712 0.241 4.712 C -2.229 4.712 -4.231 2.71 -4.231 0.241 C -4.231 -2.228 -2.229 -4.231 0.241 -4.231 C 2.712 -4.231 4.712 -2.228 4.712 0.241 Z" /><g opacity="1" transform="matrix(1, 0, 0, 1, 0, 0)" /></g></g></g><g opacity="0.492324" clip-path="url(&quot;#cp_82WztDjI&quot;)" transform="matrix(1, 0, 0, 1, 359.5, 95.229)"><g style="-ms-user-select: none;" opacity="1" transform="matrix(1, 0, 0, 1, 0, 0)"><g opacity="1" transform="matrix(1, 0, 0, 1, 4.25, 4.25)"><path fill="rgb(198, 79, 150)" fill-opacity="1" d="M -227 -177.501 C -227 -177.501 863 -177.501 863 -177.501 C 863 -177.501 863 22.499 863 22.499 C 863 22.499 -227 22.499 -227 22.499 C -227 22.499 -227 -177.501 -227 -177.501 Z M -227 22.499 C -227 22.499 863 22.499 863 22.499 C 863 22.499 863 -177.501 863 -177.501 C 863 -177.501 -227 -177.501 -227 -177.501 C -227 -177.501 -227 22.499 -227 22.499 Z M 4.712 0.241 C 4.712 2.71 2.712 4.712 0.241 4.712 C -2.229 4.712 -4.231 2.71 -4.231 0.241 C -4.231 -2.228 -2.229 -4.231 0.241 -4.231 C 2.712 -4.231 4.712 -2.228 4.712 0.241 Z" /><g opacity="1" transform="matrix(1, 0, 0, 1, 0, 0)" /></g></g></g><g opacity="0.70286" clip-path="url(&quot;#cp_hf4Z1Ij8&quot;)" transform="matrix(1, 0, 0, 1, 377, 143.43)"><g style="-ms-user-select: none;" opacity="1" transform="matrix(1, 0, 0, 1, 0, 0)"><g opacity="1" transform="matrix(1, 0, 0, 1, 4.25, 4.25)"><path style="display: none;" fill="rgb(12, 158, 216)" fill-opacity="1" d="M -240 -177.501 C -240 -177.501 850 -177.501 850 -177.501 C 850 -177.501 850 22.499 850 22.499 C 850 22.499 -240 22.499 -240 22.499 C -240 22.499 -240 -177.501 -240 -177.501 Z M -240 22.499 C -240 22.499 850 22.499 850 22.499 C 850 22.499 850 -177.501 850 -177.501 C 850 -177.501 -240 -177.501 -240 -177.501 C -240 -177.501 -240 22.499 -240 22.499 Z M 4.75 0.272 C 4.75 2.745 2.746 4.75 0.272 4.75 C -2.201 4.75 -4.207 2.745 -4.207 0.272 C -4.207 -2.201 -2.201 -4.207 0.272 -4.207 C 2.746 -4.207 4.75 -2.201 4.75 0.272 Z" /><g opacity="1" transform="matrix(1, 0, 0, 1, 0, 0)" /></g></g></g><g opacity="0.789386" clip-path="url(&quot;#cp_RUbGajKV&quot;)" transform="matrix(1, 0, 0, 1, 359.5, 127.363)"><g style="-ms-user-select: none;" opacity="1" transform="matrix(1, 0, 0, 1, 0, 0)"><g opacity="1" transform="matrix(1, 0, 0, 1, 4.25, 4.25)"><path style="display: none;" fill="rgb(12, 158, 216)" fill-opacity="1" d="M -240 -177.501 C -240 -177.501 850 -177.501 850 -177.501 C 850 -177.501 850 22.499 850 22.499 C 850 22.499 -240 22.499 -240 22.499 C -240 22.499 -240 -177.501 -240 -177.501 Z M -240 22.499 C -240 22.499 850 22.499 850 22.499 C 850 22.499 850 -177.501 850 -177.501 C 850 -177.501 -240 -177.501 -240 -177.501 C -240 -177.501 -240 22.499 -240 22.499 Z M 4.75 0.272 C 4.75 2.745 2.746 4.75 0.272 4.75 C -2.201 4.75 -4.207 2.745 -4.207 0.272 C -4.207 -2.201 -2.201 -4.207 0.272 -4.207 C 2.746 -4.207 4.75 -2.201 4.75 0.272 Z" /><g opacity="1" transform="matrix(1, 0, 0, 1, 0, 0)" /></g></g></g><g opacity="0.999919" clip-path="url(&quot;#cp_2GYJShKr&quot;)" transform="matrix(1, 0, 0, 1, 377, 127.363)"><g style="-ms-user-select: none;" opacity="1" transform="matrix(1, 0, 0, 1, 0, 0)"><g opacity="1" transform="matrix(1, 0, 0, 1, 4.25, 4.25)"><path fill="rgb(63, 175, 173)" fill-opacity="1" d="M -201 -177.635 C -201 -177.635 889 -177.635 889 -177.635 C 889 -177.635 889 22.365 889 22.365 C 889 22.365 -201 22.365 -201 22.365 C -201 22.365 -201 -177.635 -201 -177.635 Z M -201 22.365 C -201 22.365 889 22.365 889 22.365 C 889 22.365 889 -177.635 889 -177.635 C 889 -177.635 -201 -177.635 -201 -177.635 C -201 -177.635 -201 22.365 -201 22.365 Z M 4.776 0.263 C 4.776 2.755 2.756 4.776 0.263 4.776 C -2.23 4.776 -4.25 2.755 -4.25 0.263 C -4.25 -2.229 -2.23 -4.25 0.263 -4.25 C 2.756 -4.25 4.776 -2.229 4.776 0.263 Z" /><g opacity="1" transform="matrix(1, 0, 0, 1, 0, 0)" /></g></g></g><g opacity="0.731639" clip-path="url(&quot;#cp_9Ow32cQJ&quot;)" transform="matrix(1, 0, 0, 1, 377, 111.296)"><g style="-ms-user-select: none;" opacity="1" transform="matrix(1, 0, 0, 1, 0, 0)"><g opacity="1" transform="matrix(1, 0, 0, 1, 4.25, 4.25)"><path fill="rgb(63, 175, 173)" fill-opacity="1" d="M -201 -177.635 C -201 -177.635 889 -177.635 889 -177.635 C 889 -177.635 889 22.365 889 22.365 C 889 22.365 -201 22.365 -201 22.365 C -201 22.365 -201 -177.635 -201 -177.635 Z M -201 22.365 C -201 22.365 889 22.365 889 22.365 C 889 22.365 889 -177.635 889 -177.635 C 889 -177.635 -201 -177.635 -201 -177.635 C -201 -177.635 -201 22.365 -201 22.365 Z M 4.776 0.263 C 4.776 2.755 2.756 4.776 0.263 4.776 C -2.23 4.776 -4.25 2.755 -4.25 0.263 C -4.25 -2.229 -2.23 -4.25 0.263 -4.25 C 2.756 -4.25 4.776 -2.229 4.776 0.263 Z" /><g opacity="1" transform="matrix(1, 0, 0, 1, 0, 0)" /></g></g></g><g opacity="1" clip-path="url(&quot;#cp_4vXnZSGM&quot;)" transform="matrix(1, 0, 0, 1, 359.5, 143.43)"><g style="-ms-user-select: none;" opacity="1" transform="matrix(1, 0, 0, 1, 0, 0)"><g opacity="1" transform="matrix(1, 0, 0, 1, 4.25, 4.25)"><path fill="rgb(40, 56, 135)" fill-opacity="1" d="M -214 -177.633 C -214 -177.633 876 -177.633 876 -177.633 C 876 -177.633 876 22.367 876 22.367 C 876 22.367 -214 22.367 -214 22.367 C -214 22.367 -214 -177.633 -214 -177.633 Z M -214 22.367 C -214 22.367 876 22.367 876 22.367 C 876 22.367 876 -177.633 876 -177.633 C 876 -177.633 -214 -177.633 -214 -177.633 C -214 -177.633 -214 22.367 -214 22.367 Z M 4 0 C 4 2.209 2.21 4 0 4 C -2.209 4 -4 2.209 -4 0 C -4 -2.209 -2.209 -4 0 -4 C 2.21 -4 4 -2.209 4 0 Z" /><g opacity="1" transform="matrix(1, 0, 0, 1, 0, 0)" /></g></g></g><g opacity="0" clip-path="url(&quot;#cp_NhFyXMSR&quot;)" transform="matrix(1, 0, 0, 1, 359.5, 111.296)"><g style="-ms-user-select: none;" opacity="1" transform="matrix(1, 0, 0, 1, 0, 0)"><g opacity="1" transform="matrix(1, 0, 0, 1, 4.25, 4.25)"><path fill="rgb(40, 56, 135)" fill-opacity="1" d="M -214 -177.633 C -214 -177.633 876 -177.633 876 -177.633 C 876 -177.633 876 22.367 876 22.367 C 876 22.367 -214 22.367 -214 22.367 C -214 22.367 -214 -177.633 -214 -177.633 Z M -214 22.367 C -214 22.367 876 22.367 876 22.367 C 876 22.367 876 -177.633 876 -177.633 C 876 -177.633 -214 -177.633 -214 -177.633 C -214 -177.633 -214 22.367 -214 22.367 Z M 4 0 C 4 2.209 2.21 4 0 4 C -2.209 4 -4 2.209 -4 0 C -4 -2.209 -2.209 -4 0 -4 C 2.21 -4 4 -2.209 4 0 Z" /><g opacity="1" transform="matrix(1, 0, 0, 1, 0, 0)" /></g></g></g><g opacity="0.100014" clip-path="url(&quot;#cp_xajnbLtF&quot;)" transform="matrix(1, 0, 0, 1, 394.5, 95.229)"><g style="-ms-user-select: none;" opacity="1" transform="matrix(1, 0, 0, 1, 0, 0)"><g opacity="1" transform="matrix(1, 0, 0, 1, 4.25, 4.25)"><path fill="rgb(40, 56, 135)" fill-opacity="1" d="M -214 -177.633 C -214 -177.633 876 -177.633 876 -177.633 C 876 -177.633 876 22.367 876 22.367 C 876 22.367 -214 22.367 -214 22.367 C -214 22.367 -214 -177.633 -214 -177.633 Z M -214 22.367 C -214 22.367 876 22.367 876 22.367 C 876 22.367 876 -177.633 876 -177.633 C 876 -177.633 -214 -177.633 -214 -177.633 C -214 -177.633 -214 22.367 -214 22.367 Z M 4 0 C 4 2.209 2.21 4 0 4 C -2.209 4 -4 2.209 -4 0 C -4 -2.209 -2.209 -4 0 -4 C 2.21 -4 4 -2.209 4 0 Z" /><g opacity="1" transform="matrix(1, 0, 0, 1, 0, 0)" /></g></g></g><g opacity="1" clip-path="url(&quot;#cp_WBWo3FRo&quot;)" transform="matrix(1, 0, 0, 1, 394.5, 127.363)"><g style="-ms-user-select: none;" opacity="1" transform="matrix(1, 0, 0, 1, 0, 0)"><g opacity="1" transform="matrix(1, 0, 0, 1, 4.25, 4.25)"><path fill="rgb(40, 56, 135)" fill-opacity="1" d="M -214 -177.633 C -214 -177.633 876 -177.633 876 -177.633 C 876 -177.633 876 22.367 876 22.367 C 876 22.367 -214 22.367 -214 22.367 C -214 22.367 -214 -177.633 -214 -177.633 Z M -214 22.367 C -214 22.367 876 22.367 876 22.367 C 876 22.367 876 -177.633 876 -177.633 C 876 -177.633 -214 -177.633 -214 -177.633 C -214 -177.633 -214 22.367 -214 22.367 Z M 4 0 C 4 2.209 2.21 4 0 4 C -2.209 4 -4 2.209 -4 0 C -4 -2.209 -2.209 -4 0 -4 C 2.21 -4 4 -2.209 4 0 Z" /><g opacity="1" transform="matrix(1, 0, 0, 1, 0, 0)" /></g></g></g></g><g opacity="1" clip-path="url(&quot;#cp_ytEhGjs9&quot;)" transform="matrix(1, 0, 0, 1, 12.5, 0)"><g style="-ms-user-select: none;" opacity="1" transform="matrix(1, 0, 0, 1, 110.815, 159.109)"><g opacity="1" transform="matrix(1, 0, 0, 1, 117.804, 10.196)"><path fill-opacity="0" stroke="rgb(214, 219, 221)" stroke-dasharray="3px, 2px" stroke-dashoffset="0" stroke-linecap="butt" stroke-linejoin="miter" stroke-miterlimit="4" stroke-opacity="1" stroke-width="2" d="M -115.804 -8.195 C -115.804 -8.195 -106.736 8.195 -106.736 8.195 C -106.736 8.195 104.381 8.195 104.381 8.195 C 104.381 8.195 115.804 -7.227 115.804 -7.227" /></g></g><g style="-ms-user-select: none;" opacity="1" transform="matrix(1, 0, 0, 1, 110.815, 159.109)"><g opacity="1" transform="matrix(1, 0, 0, 1, 117.804, 10.196)"><path fill-opacity="0" stroke="rgb(214, 219, 221)" stroke-dasharray="3px, 2px" stroke-dashoffset="0" stroke-linecap="butt" stroke-linejoin="miter" stroke-miterlimit="4" stroke-opacity="1" stroke-width="2" d="M -115.804 -8.195 C -115.804 -8.195 -106.736 8.195 -106.736 8.195 C -106.736 8.195 104.381 8.195 104.381 8.195 C 104.381 8.195 115.804 -7.227 115.804 -7.227" /></g></g><g style="-ms-user-select: none;" opacity="1" transform="matrix(1, 0, 0, 1, 338.99, 159.06)"><g opacity="1" transform="matrix(1, 0, 0, 1, 4.25, 4.25)"><path style="display: none;" fill="rgb(63, 175, 173)" fill-opacity="1" d="M 4 0 C 4 2.209 2.21 4 0 4 C -2.21 4 -4 2.209 -4 0 C -4 -2.209 -2.21 -4 0 -4 C 2.21 -4 4 -2.209 4 0 Z" /></g></g><g style="-ms-user-select: none;" opacity="1" transform="matrix(1, 0, 0, 1, 337.808, 160.538)"><g opacity="1" transform="matrix(1, 0, 0, 1, 4.25, 4.25)"><path style="display: none;" fill="rgb(198, 79, 150)" fill-opacity="1" d="M 4 0 C 4 2.209 2.21 4 0 4 C -2.209 4 -4 2.209 -4 0 C -4 -2.209 -2.209 -4 0 -4 C 2.21 -4 4 -2.209 4 0 Z" /></g></g><g style="-ms-user-select: none;" opacity="1" transform="matrix(1, 0, 0, 1, 339.364, 158.593)"><g opacity="1" transform="matrix(1, 0, 0, 1, 4.25, 4.25)"><path style="display: none;" fill="rgb(40, 56, 135)" fill-opacity="1" d="M 4 0 C 4 2.209 2.21 4 0 4 C -2.209 4 -4 2.209 -4 0 C -4 -2.209 -2.209 -4 0 -4 C 2.21 -4 4 -2.209 4 0 Z" /></g></g><g style="-ms-user-select: none;" opacity="1" transform="matrix(1, 0, 0, 1, 337.297, 161.176)"><g opacity="1" transform="matrix(1, 0, 0, 1, 4.25, 4.25)"><path style="display: none;" fill="rgb(12, 158, 216)" fill-opacity="1" d="M 4 0 C 4 2.209 2.21 4 0 4 C -2.209 4 -4 2.209 -4 0 C -4 -2.209 -2.209 -4 0 -4 C 2.21 -4 4 -2.209 4 0 Z" /></g></g></g><g opacity="1" clip-path="url(&quot;#cp_twT3PLXl&quot;)" transform="matrix(1, 0, 0, 1, -11.167, 0)"><g opacity="1" clip-path="url(&quot;#cp_wA2YFKPd&quot;)" transform="matrix(-0.925868, 0.377847, -0.377847, -0.925868, 256.357, 171.038)"><g style="-ms-user-select: none;" opacity="1" transform="matrix(1, 0, 0, 1, 109.647, 108.621)"><g opacity="1" transform="matrix(1, 0, 0, 1, 15.66, 12.314)"><path fill-opacity="0" stroke="rgb(214, 219, 221)" stroke-dasharray="3px, 2px" stroke-dashoffset="0" stroke-linecap="butt" stroke-linejoin="miter" stroke-miterlimit="4" stroke-opacity="1" stroke-width="2" d="M 3.38962 4.64037 C 3.38962 4.64037 -13.66 -10.314 -13.66 -10.314" /></g></g><g style="-ms-user-select: none;" opacity="1" transform="matrix(1, 0, 0, 1, 109.646, 67.854)"><g opacity="1" transform="matrix(1, 0, 0, 1, 11.064, 22.383)"><path fill-opacity="0" stroke="rgb(214, 219, 221)" stroke-dasharray="2.898px, 1.898px" stroke-dashoffset="0" stroke-linecap="butt" stroke-linejoin="miter" stroke-miterlimit="4" stroke-opacity="1" stroke-width="2" d="M 4.09339 -0.847835 C 4.09339 -0.847835 -9.064 20.383 -9.064 20.383" /></g></g><g style="-ms-user-select: none;" opacity="1" transform="matrix(1, 0, 0, 1, 74.355, 88.409)"><g opacity="1" transform="matrix(1, 0, 0, 1, 19.646, 12.106)"><path fill-opacity="0" stroke="rgb(214, 219, 221)" stroke-dasharray="2.863px, 1.863px" stroke-dashoffset="0" stroke-linecap="butt" stroke-linejoin="miter" stroke-miterlimit="4" stroke-opacity="1" stroke-width="2" d="M -9.15845 -5.96951 C -9.15845 -5.96951 17.646 10.105 17.646 10.105" /></g></g><g style="-ms-user-select: none;" opacity="1" transform="matrix(1, 0, 0, 1, 74.355, 88.409)"><g opacity="1" transform="matrix(-0.551486, -0.834184, 0.834184, -0.551486, 19.646, 12.106)"><path fill-opacity="0" stroke="rgb(214, 219, 221)" stroke-dasharray="2.863px, 1.863px" stroke-dashoffset="0" stroke-linecap="butt" stroke-linejoin="miter" stroke-miterlimit="4" stroke-opacity="1" stroke-width="2" d="M -52.965 -9.77917 C -52.965 -9.77917 -18.063 10.174 -18.063 10.174" /></g></g><g style="-ms-user-select: none;" opacity="1" transform="matrix(1, 0, 0, 1, 33.544, 93.002)"><g opacity="1" transform="matrix(1, 0, 0, 1, 0, 0)" /><g opacity="1" transform="matrix(1, 0, 0, 1, 40.051, 9.809)"><path fill-opacity="0" stroke="rgb(214, 219, 221)" stroke-dasharray="3.006px, 2.006px" stroke-dashoffset="0" stroke-linecap="butt" stroke-linejoin="miter" stroke-miterlimit="4" stroke-opacity="1" stroke-width="2" d="M 38.051 7.809 C 38.051 7.809 14.5358 7.48404 14.5358 7.48404" /></g></g><g style="-ms-user-select: none;" opacity="1" transform="matrix(1, 0, 0, 1, 56.503, 108.62)"><g opacity="1" transform="matrix(1, 0, 0, 1, 28.572, 17.426)"><path fill-opacity="0" stroke="rgb(214, 219, 221)" stroke-dasharray="2.998px, 1.998px" stroke-dashoffset="0" stroke-linecap="butt" stroke-linejoin="miter" stroke-miterlimit="4" stroke-opacity="1" stroke-width="2" d="M 6.28589 -1.60145 C 6.28589 -1.60145 26.572 -15.426 26.572 -15.426" /></g></g><g style="-ms-user-select: none;" opacity="1" transform="matrix(1, 0, 0, 1, 95.449, 63.683)"><g opacity="1" transform="matrix(1, 0, 0, 1, 9.099, 24.469)"><path fill-opacity="0" stroke="rgb(214, 219, 221)" stroke-dasharray="3.311px, 2.206px" stroke-dashoffset="0" stroke-linecap="butt" stroke-linejoin="miter" stroke-miterlimit="4" stroke-opacity="1" stroke-width="2" d="M -5.3631 -24.7024 C -5.3631 -24.7024 8.037 22.113 8.037 22.113" /></g></g><g style="-ms-user-select: none;" opacity="1" transform="matrix(1, 0, 0, 1, 109.647, 63.786)"><g opacity="1" transform="matrix(1, 0, 0, 1, 24.091, 24.417)"><path fill-opacity="0" stroke="rgb(214, 219, 221)" stroke-dasharray="3.018px, 2.018px" stroke-dashoffset="0" stroke-linecap="butt" stroke-linejoin="miter" stroke-miterlimit="4" stroke-opacity="1" stroke-width="2" d="M -22.091 22.417 C -22.091 22.417 21.6967 -3.86555 21.6967 -3.86555" /></g></g><g style="-ms-user-select: none;" opacity="1" transform="matrix(1, 0, 0, 1, 109.647, 29.001)"><g opacity="1" transform="matrix(1, 0, 0, 1, 9.473, 41.81)"><path fill-opacity="0" stroke="rgb(214, 219, 221)" stroke-dasharray="2.955px, 1.955px" stroke-dashoffset="0" stroke-linecap="butt" stroke-linejoin="miter" stroke-miterlimit="4" stroke-opacity="1" stroke-width="2" d="M -7.473 39.809 C -7.473 39.809 -3.21684 3.58978 -3.21684 3.58978" /></g></g><g style="-ms-user-select: none;" opacity="1" transform="matrix(1, 0, 0, 1, 109.647, 108.62)"><g opacity="1" transform="matrix(1, 0, 0, 1, 29.751, 6.187)"><path fill-opacity="0" stroke="rgb(214, 219, 221)" stroke-dasharray="2.984px, 1.984px" stroke-dashoffset="0" stroke-linecap="butt" stroke-linejoin="miter" stroke-miterlimit="4" stroke-opacity="1" stroke-width="2" d="M 2.58519 -0.057 C 2.58519 -0.057 -27.751 -4.187 -27.751 -4.187" /></g></g></g><g style="-ms-user-select: none;" opacity="1" transform="matrix(1, 0, 0, 1, 103.417, 103.583)"><g opacity="1" transform="matrix(1, 0, 0, 1, 8.25, 8.25)"><path fill="rgb(198, 79, 150)" fill-opacity="1" d="M 8 -0.001 C 8 4.417 4.419 8 0.001 8 C -4.417 8 -8 4.417 -8 -0.001 C -8 -4.419 -4.417 -8 0.001 -8 C 4.419 -8 8 -4.419 8 -0.001 Z" /></g></g><g style="-ms-user-select: none;" opacity="1" transform="matrix(1, 0, 0, 1, 106.563, 108.119)"><g opacity="1" transform="matrix(1, 0, 0, 1, 5.223, 3.75)"><path fill="rgb(255, 255, 255)" fill-opacity="1" d="M 4.585 -2.899 C 4.226 -3.326 3.564 -3.5 2.298 -3.5 C 2.298 -3.5 -2.298 -3.5 -2.298 -3.5 C -3.593 -3.5 -4.266 -3.314 -4.624 -2.86 C -4.973 -2.417 -4.973 -1.764 -4.973 -0.861 C -4.973 -0.861 -4.973 0.861 -4.973 0.861 C -4.973 2.612 -4.56 3.5 -2.298 3.5 C -2.298 3.5 2.298 3.5 2.298 3.5 C 3.396 3.5 4.003 3.347 4.397 2.97 C 4.801 2.584 4.973 1.953 4.973 0.861 C 4.973 0.861 4.973 -0.861 4.973 -0.861 C 4.973 -1.814 4.946 -2.47 4.585 -2.899 Z M 1.413 0.238 C 1.413 0.238 -0.674 1.329 -0.674 1.329 C -0.72 1.353 -0.771 1.365 -0.822 1.365 C -0.88 1.365 -0.939 1.35 -0.99 1.319 C -1.086 1.261 -1.144 1.156 -1.144 1.044 C -1.144 1.044 -1.144 -1.13 -1.144 -1.13 C -1.144 -1.242 -1.086 -1.346 -0.99 -1.404 C -0.894 -1.462 -0.775 -1.466 -0.676 -1.415 C -0.676 -1.415 1.411 -0.331 1.411 -0.331 C 1.517 -0.276 1.585 -0.166 1.585 -0.047 C 1.585 0.073 1.519 0.183 1.413 0.238 Z" /></g></g><g style="-ms-user-select: none;" opacity="1" transform="matrix(1, 0, 0, 1, 103.25, 102.689)"><g opacity="1" transform="matrix(1, 0, 0, 1, 8.25, 8.25)"><path fill="rgb(63, 173, 173)" fill-opacity="1" d="M 8 -0.001 C 8 4.417 4.419 8 0.001 8 C -4.417 8 -8 4.417 -8 -0.001 C -8 -4.419 -4.417 -8 0.001 -8 C 4.419 -8 8 -4.419 8 -0.001 Z" /></g></g><g style="-ms-user-select: none;" opacity="1" transform="matrix(1, 0, 0, 1, 106.275, 105.439)"><g opacity="1" transform="matrix(1, 0, 0, 1, 5.25, 5.25)"><path fill="rgb(255, 255, 255)" fill-opacity="1" d="M 2.021 -5 C 2.021 -5 -2.021 -5 -2.021 -5 C -3.664 -5 -5 -3.664 -5 -2.021 C -5 -2.021 -5 2.021 -5 2.021 C -5 3.664 -3.664 5 -2.021 5 C -2.021 5 2.021 5 2.021 5 C 3.664 5 5 3.664 5 2.021 C 5 2.021 5 -2.021 5 -2.021 C 5 -3.664 3.664 -5 2.021 -5 Z M 3.994 2.021 C 3.994 3.111 3.111 3.994 2.021 3.994 C 2.021 3.994 -2.021 3.994 -2.021 3.994 C -3.111 3.994 -3.994 3.111 -3.994 2.021 C -3.994 2.021 -3.994 -2.021 -3.994 -2.021 C -3.994 -3.111 -3.111 -3.994 -2.021 -3.994 C -2.021 -3.994 2.021 -3.994 2.021 -3.994 C 3.111 -3.994 3.994 -3.111 3.994 -2.021 C 3.994 -2.021 3.994 2.021 3.994 2.021 Z" /></g><g opacity="1" transform="matrix(1, 0, 0, 1, 5.25, 5.25)"><path fill="rgb(255, 255, 255)" fill-opacity="1" d="M 0 -2.587 C -1.426 -2.587 -2.586 -1.425 -2.586 0.001 C -2.586 1.427 -1.426 2.587 0 2.587 C 1.426 2.587 2.586 1.427 2.586 0.001 C 2.586 -1.425 1.426 -2.587 0 -2.587 Z M 0 1.58 C -0.873 1.58 -1.58 0.873 -1.58 0.001 C -1.58 -0.872 -0.873 -1.581 0 -1.581 C 0.873 -1.581 1.58 -0.872 1.58 0.001 C 1.58 0.873 0.873 1.58 0 1.58 Z" /></g><g opacity="1" transform="matrix(1, 0, 0, 1, 7.841, 2.683)"><path fill="rgb(255, 255, 255)" fill-opacity="1" d="M 0 -0.62 C 0.342 -0.62 0.62 -0.342 0.62 0.001 C 0.62 0.343 0.342 0.62 0 0.62 C -0.342 0.62 -0.62 0.343 -0.62 0.001 C -0.62 -0.342 -0.342 -0.62 0 -0.62 Z" /></g></g><g style="-ms-user-select: none;" opacity="1" transform="matrix(1.02896, 0, 0, 1.02896, 103.254, 98.2377)"><g opacity="1" transform="matrix(1, 0, 0, 1, 8.25, 8.25)"><path style="display: none;" fill="rgb(12, 158, 216)" fill-opacity="1" d="M 8 -0.001 C 8 4.417 4.419 8 0.001 8 C -4.417 8 -8 4.417 -8 -0.001 C -8 -4.419 -4.417 -8 0.001 -8 C 4.419 -8 8 -4.419 8 -0.001 Z" /></g></g><g style="-ms-user-select: none;" opacity="1" transform="matrix(1, 0, 0, 1, 106.375, 107.146)"><g opacity="1" transform="matrix(1, 0, 0, 1, 5.25, 4.312)"><path fill="rgb(255, 255, 255)" fill-opacity="1" d="M 5 -3.101 C 4.632 -2.938 4.237 -2.826 3.822 -2.777 C 4.246 -3.031 4.57 -3.433 4.724 -3.911 C 4.326 -3.676 3.888 -3.506 3.42 -3.413 C 3.046 -3.812 2.514 -4.062 1.923 -4.062 C 0.79 -4.062 -0.128 -3.142 -0.128 -2.01 C -0.128 -1.85 -0.11 -1.694 -0.075 -1.544 C -1.78 -1.629 -3.292 -2.446 -4.303 -3.687 C -4.48 -3.385 -4.581 -3.032 -4.581 -2.656 C -4.581 -1.944 -4.218 -1.316 -3.668 -0.949 C -4.005 -0.96 -4.321 -1.053 -4.598 -1.206 C -4.598 -1.206 -4.598 -1.18 -4.598 -1.18 C -4.598 -0.186 -3.89 0.643 -2.952 0.832 C -3.124 0.878 -3.305 0.904 -3.493 0.904 C -3.625 0.904 -3.753 0.891 -3.879 0.866 C -3.618 1.681 -2.86 2.274 -1.963 2.29 C -2.665 2.84 -3.55 3.167 -4.511 3.167 C -4.676 3.167 -4.839 3.157 -5 3.139 C -4.092 3.722 -3.014 4.062 -1.856 4.062 C 1.918 4.062 3.981 0.936 3.981 -1.775 C 3.981 -1.775 3.974 -2.04 3.974 -2.04 C 4.377 -2.328 4.726 -2.69 5 -3.101 Z" /></g></g><g style="-ms-user-select: none;" opacity="1" transform="matrix(1.00816, 0, 0, 1.00816, 101.629, 101.574)"><g opacity="1" transform="matrix(1, 0, 0, 1, 8.25, 8.25)"><path style="display: none;" fill="rgb(40, 56, 135)" fill-opacity="1" d="M 8 -0.001 C 8 4.417 4.419 8 0.001 8 C -4.417 8 -8 4.417 -8 -0.001 C -8 -4.419 -4.417 -8 0.001 -8 C 4.419 -8 8 -4.419 8 -0.001 Z" /></g></g><g style="-ms-user-select: none;" opacity="1" transform="matrix(1, 0, 0, 1, 108.19, 105.798)"><g opacity="1" transform="matrix(1, 0, 0, 1, 2.929, 5.205)"><path fill="rgb(255, 255, 255)" fill-opacity="1" d="M 2.477 -4.953 C 2.477 -4.953 1.192 -4.955 1.192 -4.955 C -0.252 -4.955 -1.185 -3.998 -1.185 -2.516 C -1.185 -2.516 -1.185 -1.392 -1.185 -1.392 C -1.185 -1.392 -2.477 -1.392 -2.477 -1.392 C -2.588 -1.392 -2.679 -1.301 -2.679 -1.19 C -2.679 -1.19 -2.679 0.439 -2.679 0.439 C -2.679 0.551 -2.588 0.642 -2.477 0.642 C -2.477 0.642 -1.185 0.642 -1.185 0.642 C -1.185 0.642 -1.185 4.752 -1.185 4.752 C -1.185 4.864 -1.094 4.955 -0.983 4.955 C -0.983 4.955 0.703 4.955 0.703 4.955 C 0.815 4.955 0.905 4.864 0.905 4.752 C 0.905 4.752 0.905 0.642 0.905 0.642 C 0.905 0.642 2.416 0.642 2.416 0.642 C 2.528 0.642 2.618 0.551 2.618 0.439 C 2.618 0.439 2.619 -1.19 2.619 -1.19 C 2.619 -1.243 2.597 -1.295 2.559 -1.333 C 2.522 -1.371 2.47 -1.392 2.416 -1.392 C 2.416 -1.392 0.905 -1.392 0.905 -1.392 C 0.905 -1.392 0.905 -2.345 0.905 -2.345 C 0.905 -2.803 1.014 -3.036 1.611 -3.036 C 1.611 -3.036 2.477 -3.036 2.477 -3.036 C 2.588 -3.036 2.679 -3.127 2.679 -3.238 C 2.679 -3.238 2.679 -4.751 2.679 -4.751 C 2.679 -4.862 2.588 -4.953 2.477 -4.953 Z" /></g></g><g style="-ms-user-select: none;" opacity="1" transform="matrix(1.5, 0, 0, 1.5, 173.586, 8.9792)"><g opacity="1" transform="matrix(1, 0, 0, 1, 8.25, 8.25)"><path style="display: block;" fill="rgb(63, 173, 173)" fill-opacity="1" d="M 8 -0.001 C 8 4.417 4.419 8 0.001 8 C -4.417 8 -8 4.417 -8 -0.001 C -8 -4.419 -4.417 -8 0.001 -8 C 4.419 -8 8 -4.419 8 -0.001 Z" /></g></g><g style="-ms-user-select: none;" opacity="1" transform="matrix(1.5, 0, 0, 1.5, 178.124, 13.1042)"><g opacity="1" transform="matrix(1, 0, 0, 1, 5.25, 5.25)"><path style="display: block;" fill="rgb(255, 255, 255)" fill-opacity="1" d="M 2.021 -5 C 2.021 -5 -2.021 -5 -2.021 -5 C -3.664 -5 -5 -3.664 -5 -2.021 C -5 -2.021 -5 2.021 -5 2.021 C -5 3.664 -3.664 5 -2.021 5 C -2.021 5 2.021 5 2.021 5 C 3.664 5 5 3.664 5 2.021 C 5 2.021 5 -2.021 5 -2.021 C 5 -3.664 3.664 -5 2.021 -5 Z M 3.994 2.021 C 3.994 3.111 3.111 3.994 2.021 3.994 C 2.021 3.994 -2.021 3.994 -2.021 3.994 C -3.111 3.994 -3.994 3.111 -3.994 2.021 C -3.994 2.021 -3.994 -2.021 -3.994 -2.021 C -3.994 -3.111 -3.111 -3.994 -2.021 -3.994 C -2.021 -3.994 2.021 -3.994 2.021 -3.994 C 3.111 -3.994 3.994 -3.111 3.994 -2.021 C 3.994 -2.021 3.994 2.021 3.994 2.021 Z" /></g><g opacity="1" transform="matrix(1, 0, 0, 1, 5.25, 5.25)"><path style="display: block;" fill="rgb(255, 255, 255)" fill-opacity="1" d="M 0 -2.587 C -1.426 -2.587 -2.586 -1.425 -2.586 0.001 C -2.586 1.427 -1.426 2.587 0 2.587 C 1.426 2.587 2.586 1.427 2.586 0.001 C 2.586 -1.425 1.426 -2.587 0 -2.587 Z M 0 1.58 C -0.873 1.58 -1.58 0.873 -1.58 0.001 C -1.58 -0.872 -0.873 -1.581 0 -1.581 C 0.873 -1.581 1.58 -0.872 1.58 0.001 C 1.58 0.873 0.873 1.58 0 1.58 Z" /></g><g opacity="1" transform="matrix(1, 0, 0, 1, 7.841, 2.683)"><path style="display: block;" fill="rgb(255, 255, 255)" fill-opacity="1" d="M 0 -0.62 C 0.342 -0.62 0.62 -0.342 0.62 0.001 C 0.62 0.343 0.342 0.62 0 0.62 C -0.342 0.62 -0.62 0.343 -0.62 0.001 C -0.62 -0.342 -0.342 -0.62 0 -0.62 Z" /></g></g><g style="-ms-user-select: none;" opacity="1" transform="matrix(1.5, 0, 0, 1.5, 197.004, 45.6375)"><g opacity="1" transform="matrix(1, 0, 0, 1, 8.25, 8.25)"><path style="display: block;" fill="rgb(198, 79, 150)" fill-opacity="1" d="M 8 -0.001 C 8 4.417 4.419 8 0.001 8 C -4.417 8 -8 4.417 -8 -0.001 C -8 -4.419 -4.417 -8 0.001 -8 C 4.419 -8 8 -4.419 8 -0.001 Z" /></g></g><g style="-ms-user-select: none;" opacity="1" transform="matrix(1.5, 0, 0, 1.5, 201.723, 52.4415)"><g opacity="1" transform="matrix(1, 0, 0, 1, 5.223, 3.75)"><path style="display: block;" fill="rgb(255, 255, 255)" fill-opacity="1" d="M 4.585 -2.899 C 4.226 -3.326 3.564 -3.5 2.298 -3.5 C 2.298 -3.5 -2.298 -3.5 -2.298 -3.5 C -3.593 -3.5 -4.266 -3.314 -4.624 -2.86 C -4.973 -2.417 -4.973 -1.764 -4.973 -0.861 C -4.973 -0.861 -4.973 0.861 -4.973 0.861 C -4.973 2.612 -4.56 3.5 -2.298 3.5 C -2.298 3.5 2.298 3.5 2.298 3.5 C 3.396 3.5 4.003 3.347 4.397 2.97 C 4.801 2.584 4.973 1.953 4.973 0.861 C 4.973 0.861 4.973 -0.861 4.973 -0.861 C 4.973 -1.814 4.946 -2.47 4.585 -2.899 Z M 1.413 0.238 C 1.413 0.238 -0.674 1.329 -0.674 1.329 C -0.72 1.353 -0.771 1.365 -0.822 1.365 C -0.88 1.365 -0.939 1.35 -0.99 1.319 C -1.086 1.261 -1.144 1.156 -1.144 1.044 C -1.144 1.044 -1.144 -1.13 -1.144 -1.13 C -1.144 -1.242 -1.086 -1.346 -0.99 -1.404 C -0.894 -1.462 -0.775 -1.466 -0.676 -1.415 C -0.676 -1.415 1.411 -0.331 1.411 -0.331 C 1.517 -0.276 1.585 -0.166 1.585 -0.047 C 1.585 0.073 1.519 0.183 1.413 0.238 Z" /></g></g><g style="-ms-user-select: none;" opacity="1" transform="matrix(1.5, 0, 0, 1.5, 19.3599, 50.0773)"><g opacity="1" transform="matrix(1, 0, 0, 1, 8.25, 8.25)"><path style="display: block;" fill="rgb(40, 56, 135)" fill-opacity="1" d="M 8 -0.001 C 8 4.417 4.419 8 0.001 8 C -4.417 8 -8 4.417 -8 -0.001 C -8 -4.419 -4.417 -8 0.001 -8 C 4.419 -8 8 -4.419 8 -0.001 Z" /></g></g><g style="-ms-user-select: none;" opacity="1" transform="matrix(1.5, 0, 0, 1.5, 27.3414, 54.6448)"><g opacity="1" transform="matrix(1, 0, 0, 1, 2.929, 5.205)"><path style="display: block;" fill="rgb(255, 255, 255)" fill-opacity="1" d="M 2.477 -4.953 C 2.477 -4.953 1.192 -4.955 1.192 -4.955 C -0.252 -4.955 -1.185 -3.998 -1.185 -2.516 C -1.185 -2.516 -1.185 -1.392 -1.185 -1.392 C -1.185 -1.392 -2.477 -1.392 -2.477 -1.392 C -2.588 -1.392 -2.679 -1.301 -2.679 -1.19 C -2.679 -1.19 -2.679 0.439 -2.679 0.439 C -2.679 0.551 -2.588 0.642 -2.477 0.642 C -2.477 0.642 -1.185 0.642 -1.185 0.642 C -1.185 0.642 -1.185 4.752 -1.185 4.752 C -1.185 4.864 -1.094 4.955 -0.983 4.955 C -0.983 4.955 0.703 4.955 0.703 4.955 C 0.815 4.955 0.905 4.864 0.905 4.752 C 0.905 4.752 0.905 0.642 0.905 0.642 C 0.905 0.642 2.416 0.642 2.416 0.642 C 2.528 0.642 2.618 0.551 2.618 0.439 C 2.618 0.439 2.619 -1.19 2.619 -1.19 C 2.619 -1.243 2.597 -1.295 2.559 -1.333 C 2.522 -1.371 2.47 -1.392 2.416 -1.392 C 2.416 -1.392 0.905 -1.392 0.905 -1.392 C 0.905 -1.392 0.905 -2.345 0.905 -2.345 C 0.905 -2.803 1.014 -3.036 1.611 -3.036 C 1.611 -3.036 2.477 -3.036 2.477 -3.036 C 2.588 -3.036 2.679 -3.127 2.679 -3.238 C 2.679 -3.238 2.679 -4.751 2.679 -4.751 C 2.679 -4.862 2.588 -4.953 2.477 -4.953 Z" /></g></g><g style="-ms-user-select: none;" opacity="1" transform="matrix(1.5, 0, 0, 1.5, 70.7833, 4.02631)"><g opacity="1" transform="matrix(1, 0, 0, 1, 8.25, 8.25)"><path style="display: block;" fill="rgb(12, 158, 216)" fill-opacity="1" d="M 8 -0.001 C 8 4.417 4.419 8 0.001 8 C -4.417 8 -8 4.417 -8 -0.001 C -8 -4.419 -4.417 -8 0.001 -8 C 4.419 -8 8 -4.419 8 -0.001 Z" /></g></g><g style="-ms-user-select: none;" opacity="1" transform="matrix(1.5, 0, 0, 1.5, 75.2833, 9.93331)"><g opacity="1" transform="matrix(1, 0, 0, 1, 5.25, 4.312)"><path style="display: block;" fill="rgb(255, 255, 255)" fill-opacity="1" d="M 5 -3.101 C 4.632 -2.938 4.237 -2.826 3.822 -2.777 C 4.246 -3.031 4.57 -3.433 4.724 -3.911 C 4.326 -3.676 3.888 -3.506 3.42 -3.413 C 3.046 -3.812 2.514 -4.062 1.923 -4.062 C 0.79 -4.062 -0.128 -3.142 -0.128 -2.01 C -0.128 -1.85 -0.11 -1.694 -0.075 -1.544 C -1.78 -1.629 -3.292 -2.446 -4.303 -3.687 C -4.48 -3.385 -4.581 -3.032 -4.581 -2.656 C -4.581 -1.944 -4.218 -1.316 -3.668 -0.949 C -4.005 -0.96 -4.321 -1.053 -4.598 -1.206 C -4.598 -1.206 -4.598 -1.18 -4.598 -1.18 C -4.598 -0.186 -3.89 0.643 -2.952 0.832 C -3.124 0.878 -3.305 0.904 -3.493 0.904 C -3.625 0.904 -3.753 0.891 -3.879 0.866 C -3.618 1.681 -2.86 2.274 -1.963 2.29 C -2.665 2.84 -3.55 3.167 -4.511 3.167 C -4.676 3.167 -4.839 3.157 -5 3.139 C -4.092 3.722 -3.014 4.062 -1.856 4.062 C 1.918 4.062 3.981 0.936 3.981 -1.775 C 3.981 -1.775 3.974 -2.04 3.974 -2.04 C 4.377 -2.328 4.726 -2.69 5 -3.101 Z" /></g></g><g style="-ms-user-select: none;" opacity="1" transform="matrix(1, 0, 0, 1, 88.836, 99.987)"><g opacity="1" transform="matrix(1, 0, 0, 1, 22.828, 44.033)"><path fill-opacity="0" stroke="rgb(214, 219, 221)" stroke-linecap="butt" stroke-linejoin="miter" stroke-miterlimit="4" stroke-opacity="1" stroke-width="2" d="M 20.828 32.851 C 20.828 32.851 -20.828 32.851 -20.828 32.851 C -20.828 32.851 -0.017 -32.851 -0.017 -32.851 C -0.017 -32.851 20.828 32.851 20.828 32.851 Z" /></g><g opacity="1" transform="matrix(1, 0, 0, 1, 22.811, 10.633)"><path fill="rgb(255, 255, 255)" fill-opacity="1" d="M 4.804 0 C 4.804 2.653 2.653 4.804 0 4.804 C -2.653 4.804 -4.804 2.653 -4.804 0 C -4.804 -2.653 -2.653 -4.804 0 -4.804 C 2.653 -4.804 4.804 -2.653 4.804 0 Z" /></g><g opacity="1" transform="matrix(1, 0, 0, 1, 22.811, 10.633)"><path fill-opacity="0" stroke="rgb(209, 209, 211)" stroke-linecap="butt" stroke-linejoin="miter" stroke-miterlimit="4" stroke-opacity="1" stroke-width="1.997" d="M 4.804 0 C 4.804 2.653 2.653 4.804 0 4.804 C -2.653 4.804 -4.804 2.653 -4.804 0 C -4.804 -2.653 -2.653 -4.804 0 -4.804 C 2.653 -4.804 4.804 -2.653 4.804 0 Z" /></g><g opacity="1" transform="matrix(1, 0, 0, 1, 22.811, 10.633)"><path fill="rgb(255, 255, 255)" fill-opacity="1" d="M 8.633 -0.001 C 8.633 4.767 4.768 8.633 -0.001 8.633 C -4.769 8.633 -8.633 4.767 -8.633 -0.001 C -8.633 -4.769 -4.769 -8.633 -0.001 -8.633 C 4.768 -8.633 8.633 -4.769 8.633 -0.001 Z" /></g><g opacity="1" transform="matrix(1, 0, 0, 1, 22.811, 10.633)"><path fill-opacity="0" stroke="rgb(214, 219, 221)" stroke-linecap="butt" stroke-linejoin="miter" stroke-miterlimit="4" stroke-opacity="1" stroke-width="2" d="M 8.633 -0.001 C 8.633 4.767 4.768 8.633 -0.001 8.633 C -4.769 8.633 -8.633 4.767 -8.633 -0.001 C -8.633 -4.769 -4.769 -8.633 -0.001 -8.633 C 4.768 -8.633 8.633 -4.769 8.633 -0.001 Z" /><path fill-opacity="0" stroke="rgb(214, 219, 221)" stroke-linecap="butt" stroke-linejoin="miter" stroke-miterlimit="4" stroke-opacity="1" stroke-width="2" d="M 8.633 -0.001 C 8.633 4.767 4.768 8.633 -0.001 8.633 C -4.769 8.633 -8.633 4.767 -8.633 -0.001 C -8.633 -4.769 -4.769 -8.633 -0.001 -8.633 C 4.768 -8.633 8.633 -4.769 8.633 -0.001 Z" /></g><g opacity="1" transform="matrix(1, 0, 0, 1, 19.136, 53.748)"><path fill-opacity="0" stroke="rgb(214, 219, 221)" stroke-linecap="round" stroke-linejoin="round" stroke-opacity="1" stroke-width="2" d="M -16.421 22.574 C -16.421 22.574 16.421 -2.068 16.421 -2.068 C 16.421 -2.068 -2.571 -22.574 -2.571 -22.574" /></g><g opacity="1" transform="matrix(1, 0, 0, 1, 22.811, 10.633)"><path fill="rgb(255, 255, 255)" fill-opacity="1" d="M 4.804 0 C 4.804 2.653 2.653 4.804 0 4.804 C -2.653 4.804 -4.804 2.653 -4.804 0 C -4.804 -2.653 -2.653 -4.804 0 -4.804 C 2.653 -4.804 4.804 -2.653 4.804 0 Z" /></g><g opacity="1" transform="matrix(1, 0, 0, 1, 22.811, 10.633)"><path fill-opacity="0" stroke="rgb(214, 219, 221)" stroke-linecap="butt" stroke-linejoin="miter" stroke-miterlimit="4" stroke-opacity="1" stroke-width="2" d="M 4.804 0 C 4.804 2.653 2.653 4.804 0 4.804 C -2.653 4.804 -4.804 2.653 -4.804 0 C -4.804 -2.653 -2.653 -4.804 0 -4.804 C 2.653 -4.804 4.804 -2.653 4.804 0 Z" /></g><g opacity="1" transform="matrix(1, 0, 0, 1, 26.684, 53.792)"><path fill-opacity="0" stroke="rgb(214, 219, 221)" stroke-linecap="round" stroke-linejoin="round" stroke-opacity="1" stroke-width="2" d="M 16.421 22.529 C 16.421 22.529 -16.421 -2.113 -16.421 -2.113 C -16.421 -2.113 1.918 -22.529 1.918 -22.529" /></g><g opacity="1" transform="matrix(1, 0, 0, 1, 42.623, 61.511)"><path fill-opacity="0" stroke="rgb(214, 219, 221)" stroke-linecap="butt" stroke-linejoin="miter" stroke-miterlimit="4" stroke-opacity="1" stroke-width="2" d="M -5.357 -4.682 C -3.381 -4.682 5.357 -5.188 5.357 -0.389 C 5.357 4.41 -0.245 5.188 -2.221 5.188 C -2.221 5.188 -5.357 -4.682 -5.357 -4.682 Z" /></g></g></g></g></svg>